<ttFont>
          <CharString index="0">
            -107 callgsubr
            endchar
          </CharString>
          <CharString index="1">
            108 hlineto
            -93 callgsubr
            -259 -94 callsubr
            endchar
          </CharString>
          <CharString index="2">
            -106 callgsubr
            endchar
          </CharString>
          <CharString index="3">
            rmoveto
            -106 callsubr
          </CharString>
          <CharString index="4">
            121 109 94 162 163 -109 94 -121 -121 -109 12 callsubr
            109 -94 121 hvcurveto
            83 vmoveto
            -77 -49 69 104 104 49 70 77 77 49 -70 -104 -104 -49 -69 -77 hvcurveto
            return
          </CharString>
          <CharString index="5">
            -84 callgsubr
            -84 callsubr
            hvcurveto
            return
          </CharString>
          <CharString index="6">
            -103 callsubr
            endchar
          </CharString>
          <CharString index="7">
            rmoveto
            -1 154 rlineto
            -107 hlineto
            1 -159 2 -198 -90 -111 -204 -13 rlinecurve
            -16 137 140 55 45 86 3 142 rlinecurve
            60 -102 -62 vlineto
            -1 -114 -22 -53 -73 -36 -32 266 rcurveline
            -102 hlineto
            73 -572 332 -3 156 141 -2 280 rlinecurve
            return
          </CharString>
          <CharString index="8">
            rmoveto
            -101 callsubr
          </CharString>
          <CharString index="9">
            -19 -13 -16 -17 24 callsubr
            hvcurveto
            return
          </CharString>
          <CharString index="10">
            582 rmoveto
            32 24 25 31 32 -24 24 -32 -33 -23 -24 -32 -31 23 -25 33 hvcurveto
            200 hmoveto
            33 23 25 31 32 -23 24 -33 -32 -24 -24 -32 -31 24 -25 32 hvcurveto
            return
          </CharString>
          <CharString index="11">
            rmoveto
            143 87 86 105 96 -56 48 -77 32 hvcurveto
            -91 39 rlineto
            -53 22 -53 21 56 vvcurveto
            53 44 32 67 58 46 -22 -36 41 vhcurveto
            53 65 rlineto
            50 -49 -72 32 -77 hhcurveto
            -124 -90 -77 -103 -96 70 -49 63 -26 hvcurveto
            91 -40 rlineto
            61 -26 44 -19 -60 vvcurveto
            -56 -45 -38 -79 -64 -64 31 47 -47 vhcurveto
            -60 -70 rlineto
            -61 60 83 -36 90 hhcurveto
            return
          </CharString>
          <CharString index="12">
            -35 -25 -24 -39 -36 28 -21 32 3 3 0 1 3 hvcurveto
            -58 -27 -35 -53 -32 vhcurveto
            26 -46 rlineto
            77 42 40 62 84 vvcurveto
            65 -26 37 -46 vhcurveto
            return
          </CharString>
          <CharString index="13">
            268 rmoveto
            26 88 22 71 20 73 19 74 rlinecurve
            4 hlineto
            20 -73 20 -74 22 -71 26 -88 rcurveline
            -179 hlineto
            return
          </CharString>
          <CharString index="14">
            rmoveto
            120 65 67 82 92 -76 31 -68 25 hvcurveto
            -54 20 -51 16 42 vvcurveto
            34 26 27 54 41 34 -18 -25 34 vhcurveto
            47 63 rlineto
            31 -39 -54 26 -65 hhcurveto
            -108 -66 -61 -82 -82 75 -35 66 -25 hvcurveto
            53 -20 55 -20 -45 vvcurveto
            -37 -28 -29 -58 -53 -43 22 34 -43 vhcurveto
            -48 -65 rlineto
            -39 47 69 -29 68 hhcurveto
            return
          </CharString>
          <CharString index="15">
            rmoveto
            67 48 34 52 44 hvcurveto
            3 hlineto
            8 -74 rlineto
            83 489 -101 -340 hlineto
            -52 -41 -31 -22 -46 hhcurveto
            -58 -25 34 85 hvcurveto
            295 -101 -308 vlineto
            -124 46 -69 104 vhcurveto
            endchar
          </CharString>
          <CharString index="16">
            rmoveto
            89 74 33 44 43 hvcurveto
            283 -222 -84 130 -154 vlineto
            -21 -23 -40 -12 -41 hhcurveto
            -135 -73 96 156 154 81 95 123 63 40 -26 -33 33 hvcurveto
            55 66 rlineto
            41 -40 -62 41 -92 hhcurveto
            -174 -132 -128 -213 -215 128 -123 175 hvcurveto
            endchar
          </CharString>
          <CharString index="17">
            32 23 23 32 32 -23 23 -32 -32 -23 -23 -32 -32 23 -23 32 hvcurveto
            return
          </CharString>
          <CharString index="18">
            rmoveto
            144 98 79 213 hvcurveto
            375 -98 -381 vlineto
            -149 -61 -48 -83 -82 -59 48 149 vhcurveto
            381 -102 -375 vlineto
            -213 99 -79 144 vhcurveto
            endchar
          </CharString>
          <CharString index="19">
            -59 283 392 rmoveto
            -48 -57 -29 -48 -38 hvcurveto
            187 4 71 64 83 hhcurveto
            39 40 -20 -29 24 hvcurveto
            55 62 rlineto
            39 -37 -53 31 -73 hhcurveto
            -129 -118 -101 -251 -210 101 -99 125 106 89 82 125 132 -74 65 -110 hvcurveto
            -12 -326 rmoveto
            -69 -48 56 117 -11 hvcurveto
            57 39 45 22 38 hhcurveto
            70 38 -44 -79 -80 -45 -49 -57 hvcurveto
            endchar
          </CharString>
          <CharString index="20">
            -95 callsubr
            endchar
          </CharString>
          <CharString index="21">
            298 410 -160 rmoveto
            70 63 16 34 59 hvcurveto
            -25 58 rlineto
            -25 -44 -57 -18 -58 hhcurveto
            -166 -130 106 196 231 171 150 176 186 90 -121 -156 -124 -68 -75 -62 -52 -18 35 73 18 hvcurveto
            41 206 rlineto
            -65 hlineto
            -12 -41 rlineto
            -2 hlineto
            34 -18 -27 15 -34 hhcurveto
            -116 -79 -125 -111 -91 53 -53 71 43 47 29 39 31 hvcurveto
            2 hlineto
            -50 8 44 -26 55 hhcurveto
            95 113 91 177 201 -130 138 -206 -230 -197 -178 -271 -240 163 -124 197 hvcurveto
            -15 281 rmoveto
            -38 -27 25 58 71 45 91 73 25 18 -11 -27 16 hvcurveto
            -27 -152 rlineto
            -39 -32 -27 -16 -26 hhcurveto
            endchar
          </CharString>
          <CharString index="22">
            -18 13 -16 19 19 12 16 18 return
          </CharString>
          <CharString index="23">
            -36 -26 -25 -35 -36 26 -25 36 return
          </CharString>
          <CharString index="24">
            rmoveto
            -90 callgsubr
            return
          </CharString>
          <CharString index="25">
            rmoveto
            36 33 9 9 27 hvcurveto
            -18 75 rlineto
            -6 -15 -21 -6 -17 hhcurveto
            -51 -21 31 59 hvcurveto
            249 128 81 -128 135 -84 vlineto
            -12 -135 -76 -5 rlineto
            -76 71 -249 vlineto
            -102 39 -69 109 vhcurveto
            return
          </CharString>
          <CharString index="26">
            397 -79 callgsubr
            hlineto
            return
          </CharString>
          <CharString index="27">
            138 -70 93 -129 -114 -109 -98 -159 -161 105 -95 133 return
          </CharString>
          <CharString index="28">
            -59 238 -12 rmoveto
            115 105 79 139 137 -90 62 -109 -35 -27 -8 -15 -28 hvcurveto
            15 169 rlineto
            243 86 -331 hlineto
            -20 -311 50 -32 rlineto
            25 38 25 12 42 hhcurveto
            75 50 -47 -81 -82 -56 -50 -74 -69 -47 33 37 -38 hvcurveto
            -48 -65 rlineto
            -46 46 65 -42 103 hhcurveto
            endchar
          </CharString>
          <CharString index="29">
            rmoveto
            103 51 70 105 38 hvcurveto
            180 519 rlineto
            -98 hlineto
            -79 -253 -13 -44 -13 -49 -13 -45 27 callsubr
            -15 46 -15 49 -15 43 -91 253 rcurveline
            -103 hlineto
            194 -486 -10 -33 rlineto
            -54 -18 -32 -39 -53 hhcurveto
            -12 -14 4 3 -10 hvcurveto
            -19 -79 rlineto
            -6 17 19 -4 25 hhcurveto
            endchar
          </CharString>
          <CharString index="30">
            -81 callsubr
            endchar
          </CharString>
          <CharString index="31">
            -13 77 hmoveto
            -74 callgsubr
            -49 -36 -41 -43 vhcurveto
            4 97 rlineto
            188 -101 -709 vlineto
            return
          </CharString>
          <CharString index="32">
            575 rmoveto
            102 hlineto
            112 137 -41 38 -120 -107 29 callgsubr
            -120 107 -41 -38 112 -137 rlineto
            return
          </CharString>
          <CharString index="33">
            -59 39 hmoveto
            422 86 -168 hlineto
            -32 -41 -3 -3 -34 hvcurveto
            137 144 107 117 116 vvcurveto
            116 -77 76 -120 -85 -58 -37 -61 -56 vhcurveto
            57 -56 rlineto
            40 35 43 33 51 hhcurveto
            74 38 -46 -70 -100 -110 -113 -183 -180 hvcurveto
            -59 vlineto
            endchar
          </CharString>
          <CharString index="34">
            rmoveto
            28 callgsubr
          </CharString>
          <CharString index="35">
            rmoveto
            85 67 34 61 52 hvcurveto
            -55 64 rlineto
            -43 -39 -46 -27 -60 hhcurveto
            -116 -74 96 156 154 79 95 114 53 41 -24 -35 34 hvcurveto
            55 66 rlineto
            43 -40 -64 39 -81 hhcurveto
            -166 -130 -128 -213 -215 127 -123 164 hvcurveto
            endchar
          </CharString>
          <CharString index="36">
            330 -99 callgsubr
          </CharString>
          <CharString index="37">
            rmoveto
            -77 callsubr
          </CharString>
          <CharString index="38">
            41 33 -116 156 116 155 -41 34 -136 -152 rlineto
            -74 45 callgsubr
            -152 rlineto
            return
          </CharString>
          <CharString index="39">
            4 hlineto
            120 -107 41 38 -112 137 rlineto
            -102 hlineto
            -112 -137 41 -38 return
          </CharString>
          <CharString index="40">
            10 callgsubr
            hvcurveto
            24 84 -62 callgsubr
            return
          </CharString>
          <CharString index="41">
            695 37 callgsubr
            90 rlineto
            -58 callsubr
            rlineto
            return
          </CharString>
          <CharString index="42">
            56 86 hmoveto
            175 hlineto
            -22 callsubr
            -170 19 callsubr
            102 83 rmoveto
            489 61 vlineto
            1 callsubr
            -61 hlineto
            return
          </CharString>
          <CharString index="43">
            -130 217 317 rmoveto
            105 86 81 117 117 -86 82 -105 -105 -86 -82 -117 -117 86 -81 105 hvcurveto
            40 vmoveto
            -84 -63 64 94 94 63 65 84 84 63 -65 -94 -94 -63 -64 -84 hvcurveto
            -75 60 rmoveto
            46 67 37 hlineto
            34 -67 rlineto
            50 hlineto
            -45 81 rlineto
            23 9 14 22 24 vvcurveto
            47 -36 18 -43 vhcurveto
            -80 -201 hlineto
            46 102 rmoveto
            63 26 vlineto
            27 11 -13 -19 -20 -15 -11 -25 hvcurveto
            -24 hlineto
            endchar
          </CharString>
          <CharString index="44">
            -59 397 585 rmoveto
            23 17 -7 -6 13 hvcurveto
            21 77 rlineto
            9 -19 -33 9 -29 hhcurveto
            -113 -49 -68 -137 -15 hvcurveto
            -6 -52 rlineto
            -21 hlineto
            -71 -5 rlineto
            -71 84 vlineto
            -22 -198 -12 -105 -21 -46 -58 -1 rlinecurve
            -17 -16 3 7 -15 hvcurveto
            -17 -76 rlineto
            -9 16 28 -6 33 hhcurveto
            118 40 87 121 14 hvcurveto
            25 223 rlineto
            128 76 -119 hlineto
            7 60 rlineto
            63 7 23 52 56 hhcurveto
            endchar
          </CharString>
          <CharString index="45">
            -59 89 hmoveto
            63 hlineto
            24 199 rlineto
            124 hlineto
            -24 -199 rlineto
            63 hlineto
            24 199 rlineto
            93 68 -85 hlineto
            17 137 rlineto
            88 68 -80 11 callgsubr
            -124 11 callgsubr
            -91 -68 83 hlineto
            -17 -137 rlineto
            -86 -68 78 hlineto
            -24 -199 rlineto
            95 267 rmoveto
            17 137 rlineto
            124 hlineto
            -17 -137 rlineto
            -124 hlineto
            endchar
          </CharString>
          <CharString index="46">
            -19 -13 -16 -17 return
          </CharString>
          <CharString index="47">
            91 89 621 -40 callsubr
            515 -89 callgsubr
            return
          </CharString>
          <CharString index="48">
            102 248 hlineto
            197 407 rlineto
            -106 hlineto
            -77 -175 -19 -48 -22 -46 -21 -49 27 callsubr
            -22 49 -19 46 -20 48 -77 175 rcurveline
            -109 hlineto
            197 -407 rlineto
            -248 vlineto
            endchar
          </CharString>
          <CharString index="49">
            4 hlineto
            108 -90 44 30 -100 112 rlineto
            -108 hlineto
            -100 -112 44 -30 return
          </CharString>
          <CharString index="50">
            95 48 56 75 8 hvcurveto
            -59 10 rlineto
            -45 -8 -30 -34 -54 hhcurveto
            -54 -30 34 45 -8 hvcurveto
            -59 -10 rlineto
            -75 8 48 -56 95 hhcurveto
            return
          </CharString>
          <CharString index="51">
            64 hlineto
            359 679 rlineto
            -64 hlineto
            return
          </CharString>
          <CharString index="52">
            -250 35 -152 rmoveto
            50 hlineto
            82 38 31 105 hvcurveto
            72 -9 48 66 vvcurveto
            38 19 38 67 1 vhcurveto
            62 vlineto
            -67 1 -19 38 37 67 9 48 72 vvcurveto
            105 -38 31 -82 vhcurveto
            -50 -56 24 hlineto
            51 13 -23 -62 hvcurveto
            -58 -5 -52 -66 vvcurveto
            -68 19 -31 45 -12 vhcurveto
            -4 vlineto
            -45 -12 -19 -32 -67 -66 5 -51 -59 vvcurveto
            -62 -13 -23 -51 vhcurveto
            -24 -56 hlineto
            endchar
          </CharString>
          <CharString index="53">
            24 86 hmoveto
            102 198 hlineto
            102 124 185 -322 rlineto
            113 hlineto
            -236 402 203 253 rlineto
            -114 hlineto
            -250 -311 rlineto
            -3 311 49 callgsubr
            return
          </CharString>
          <CharString index="54">
            704 rmoveto
            -63 callgsubr
            43 28 -67 74 hhcurveto
            return
          </CharString>
          <CharString index="55">
            182 63 rmoveto
            -69 callsubr
            return
          </CharString>
          <CharString index="56">
            95 63 rmoveto
            -69 callgsubr
            return
          </CharString>
          <CharString index="57">
            56 574 294 rmoveto
            196 -3 -84 80 -126 hhcurveto
            -69 -62 -42 -84 -28 hvcurveto
            -46 118 rlineto
            -111 hlineto
            79 -175 -72 -387 rlineto
            107 hlineto
            66 383 rlineto
            58 14 37 43 67 hhcurveto
            76 51 -49 -141 2 hvcurveto
            3 -166 -58 -83 -155 35 -10 -82 rcurveline
            207 -47 119 117 -4 226 rrcurveto
            return
          </CharString>
          <CharString index="58">
            0 callgsubr
            194 hmoveto
            -87 callsubr
          </CharString>
          <CharString index="59">
            19 12 15 18 17 -12 return
          </CharString>
          <CharString index="60">
            85 99 365 rmoveto
            70 247 96 64 -262 -64 96 -247 hlineto
            213 hmoveto
            65 125 hlineto
            -8 108 36 callsubr
            68 -186 rlineto
            53 hlineto
            68 186 36 callsubr
            -8 -108 rlineto
            -125 65 311 -83 vlineto
            -44 -111 -26 -75 29 callgsubr
            -26 75 -45 111 rlineto
            -83 -311 hlineto
            endchar
          </CharString>
          <CharString index="61">
            -6 305 -12 rmoveto
            110 100 97 168 150 -69 98 -124 -52 -52 -27 -37 -43 hvcurveto
            3 84 rlineto
            188 -101 -709 80 vlineto
            9 51 rlineto
            3 hlineto
            -40 42 49 -23 45 hhcurveto
            -20 84 rmoveto
            -30 -39 12 33 -38 hvcurveto
            240 vlineto
            40 41 38 1 callgsubr
            return
          </CharString>
          <CharString index="62">
            573 rmoveto
            51 50 -25 callsubr
            rlineto
            return
          </CharString>
          <CharString index="63">
            -59 202 hmoveto
            101 155 160 54 -160 62 160 54 -136 hlineto
            159 312 rlineto
            -102 hlineto
            -70 -160 -19 -43 -18 -44 -21 -47 27 callsubr
            -20 46 -18 44 -19 44 -70 160 rcurveline
            -105 hlineto
            158 -312 rlineto
            -135 -54 159 -62 -159 -54 159 -155 hlineto
            endchar
          </CharString>
          <CharString index="64">
            rmoveto
            -3 -3 0 -1 -3 hvcurveto
            58 27 35 53 32 vhcurveto
            -35 callsubr
            vhcurveto
            endchar
          </CharString>
          <CharString index="65">
            377 81 -250 hlineto
            242 354 rlineto
            54 -342 -81 215 vlineto
            -242 -354 rlineto
            -54 vlineto
            return
          </CharString>
          <CharString index="66">
            571 rmoveto
            -92 callgsubr
            return
          </CharString>
          <CharString index="67">
            rmoveto
            -4 callsubr
            -3 callgsubr
            hvcurveto
            return
          </CharString>
          <CharString index="68">
            32 callsubr
            -6 6 164 rlineto
            -84 hlineto
            6 -164 -148 6 33 callgsubr
            return
          </CharString>
          <CharString index="69">
            18 533 325 rmoveto
            -1 32 rlineto
            125 -4 -69 80 -126 hhcurveto
            -288 hlineto
            10 -82 58 -490 247 9 181 81 -8 245 rlinecurve
            -326 -238 rmoveto
            -45 393 rlineto
            163 hlineto
            65 37 -53 -73 hvcurveto
            -27 vlineto
            6 -170 -86 -58 -140 -12 rrcurveto
            return
          </CharString>
          <CharString index="70">
            -83 callgsubr
            -174 -57 38 callgsubr
            return
          </CharString>
          <CharString index="71">
            33 callsubr
            588 vlineto
            58 15 33 53 13 11 -4 -4 10 vhcurveto
            19 76 rlineto
            7 -16 -21 6 -29 hhcurveto
            -115 -41 -71 -102 hvcurveto
            -588 vlineto
            -28 callsubr
            return
          </CharString>
          <CharString index="72">
            -26 46 rlineto
            -77 -42 -40 -62 -84 vvcurveto
            -65 26 -37 46 35 25 24 39 36 -28 21 -32 return
          </CharString>
          <CharString index="73">
            692 rmoveto
            45 51 -13 callgsubr
            rlineto
            return
          </CharString>
          <CharString index="74">
            2 241 -1 rmoveto
            170 5 86 117 10 191 14 178 rcurveline
            4 72 rlineto
            -471 -82 356 hlineto
            -15 -193 -11 -159 -63 -37 -90 -9 rlinecurve
            10 -83 rlineto
            -190 -199 rmoveto
            107 550 -92 hlineto
            -15 -68 rlineto
            -482 vlineto
            return
          </CharString>
          <CharString index="75">
            -176 -57 callgsubr
          </CharString>
          <CharString index="76">
            44 44 31 23 46 hhcurveto
            58 25 -34 -85 hvcurveto
            return
          </CharString>
          <CharString index="77">
            -170 352 hmoveto
            -34 215 rlineto
            183 vlineto
            92 -31 57 -81 12 vhcurveto
            -99 15 -14 -81 64 -10 rlineto
            42 -7 12 -23 -57 vvcurveto
            -174 vlineto
            -37 -72 -61 -47 -85 -34 40 -85 rcurveline
            78 27 46 47 36 66 22 -124 rcurveline
            102 hlineto
            return
          </CharString>
          <CharString index="78">
            -10 288 40 callgsubr
            -197 hlineto
            -34 -158 -14 -111 17 -60 120 -11 rlinecurve
            22 66 -52 10 -7 37 11 64 rlinecurve
            15 81 rlineto
            93 hlineto
            87 36 -62 -103 hvcurveto
            -515 107 511 vlineto
            159 -1 -70 92 -133 hhcurveto
            return
          </CharString>
          <CharString index="79">
            -58 -12 -33 -46 -16 -15 4 4 -13 vhcurveto
            -19 -76 rlineto
            -7 18 25 -6 33 hhcurveto
            return
          </CharString>
          <CharString index="80">
            -250 211 -177 rmoveto
            63 28 rlineto
            -76 128 -36 150 149 vvcurveto
            149 36 150 76 128 vhcurveto
            -63 28 rlineto
            -83 -135 -49 -144 -176 vvcurveto
            -176 49 -144 83 -135 vhcurveto
            endchar
          </CharString>
          <CharString index="81">
            -250 104 -177 rmoveto
            83 135 49 144 176 vvcurveto
            176 -49 144 -83 135 vhcurveto
            -63 -28 rlineto
            76 -128 36 -150 -149 vvcurveto
            -149 -36 -150 -76 -128 vhcurveto
            63 -28 rlineto
            endchar
          </CharString>
          <CharString index="82">
            -145 171 -70 -67 164 -154 return
          </CharString>
          <CharString index="83">
            97 311 hlineto
            71 -8 75 -5 68 vhcurveto
            4 hlineto
            69 -137 218 -388 rlineto
            105 655 -97 -308 hlineto
            -71 8 -79 5 -67 vhcurveto
            -4 hlineto
            -69 138 -218 387 rlineto
            -105 23 callsubr
          </CharString>
          <CharString index="84">
            -198 183 381 rmoveto
            83 72 63 107 108 -72 62 -83 -83 -72 -62 -108 -107 72 -63 83 hvcurveto
            60 vmoveto
            -50 -29 45 65 66 29 44 50 51 28 -44 -66 -65 -28 -45 -51 hvcurveto
            endchar
          </CharString>
          <CharString index="85">
            196 114 117 213 213 -114 112 -201 hvcurveto
            return
          </CharString>
          <CharString index="86">
            -261 118 208 rmoveto
            68 hlineto
            14 357 3 105 rlineto
            -102 hlineto
            3 -105 14 -357 rlineto
            34 -220 -73 callsubr
          </CharString>
          <CharString index="87">
            -224 171 420 rmoveto
            71 60 53 79 80 -60 53 -71 -71 -60 -53 -80 -79 60 -53 71 hvcurveto
            53 vmoveto
            -43 -30 33 46 47 30 33 43 43 30 -33 -47 -46 -30 -33 -43 hvcurveto
            endchar
          </CharString>
          <CharString index="88">
            101 489 -101 19 callgsubr
          </CharString>
          <CharString index="89">
            -87 37 hmoveto
            171 hlineto
            144 78 93 159 hvcurveto
            58 vlineto
            159 -78 93 -144 vhcurveto
            -171 -82 145 hlineto
            97 44 -62 -103 hvcurveto
            -68 vlineto
            -102 -44 -63 -97 vhcurveto
            -145 -82 hlineto
            return
          </CharString>
          <CharString index="90">
            -56 67 -150 -132 45 -51 return
          </CharString>
          <CharString index="91">
            -136 141 400 rmoveto
            74 86 73 -86 46 33 -57 97 100 43 -17 53 -107 -24 -10 110 rlineto
            -57 hlineto
            -10 -111 -106 25 -18 -53 100 -43 -57 -97 46 -33 rlineto
            endchar
          </CharString>
          <CharString index="92">
            27 callgsubr
            556 148 -6 -39 callsubr
            6 -6 -556 rlineto
            endchar
          </CharString>
          <CharString index="93">
            -7 393 hmoveto
            107 10 callsubr
            -273 -82 246 hlineto
            7 callgsubr
            -380 vlineto
            -339 hmoveto
            107 339 -92 hlineto
            -15 -67 rlineto
            -272 vlineto
            return
          </CharString>
          <CharString index="94">
            -13 117 rlineto
            -107 hlineto
            13 -117 rlineto
            return
          </CharString>
          <CharString index="95">
            hlineto
            2 12 2 20 20 vvcurveto
            return
          </CharString>
          <CharString index="96">
            rmoveto
            17 callsubr
            17 callgsubr
            hvcurveto
            60 vmoveto
            -22 callgsubr
            return
          </CharString>
          <CharString index="97">
            -2 -9 -4 0 -5 hhcurveto
            -12 -12 10 27 hvcurveto
            601 -101 -595 vlineto
            -79 28 -47 73 return
          </CharString>
          <CharString index="98">
            64 -71 callgsubr
            107 hmoveto
            -18 -14 -16 -17 -18 14 -15 18 -48 callsubr
            16 -19 hvcurveto
            return
          </CharString>
          <CharString index="99">
            -301 178 -12 rmoveto
            39 callsubr
            hvcurveto
            -13 76 rlineto
            -10 callsubr
            vhcurveto
            endchar
          </CharString>
          <CharString index="100">
            rmoveto
            -58 238 -90 hlineto
            -157 -252 rlineto
            -39 178 -99 69 99 58 53 vlineto
            -229 hmoveto
            56 93 47 80 36 callsubr
            -5 -111 rlineto
            -62 -102 vlineto
            endchar
          </CharString>
          <CharString index="101">
            17 294 218 rmoveto
            35 437 -44 hlineto
            -138 -107 -56 -160 -151 110 -70 144 hvcurveto
            90 -298 rmoveto
            102 735 -102 -735 hlineto
            endchar
          </CharString>
          <CharString index="102">
            581 -25 callgsubr
            return
          </CharString>
          <CharString index="103">
            19 12 17 17 17 -12 16 -19 return
          </CharString>
          <CharString index="104">
            -359 -679 rlineto
            return
          </CharString>
          <CharString index="105">
            rmoveto
            -38 -32 -25 -40 -42 32 -23 36 3 4 0 1 3 hvcurveto
            -1 -53 -35 -44 -61 -25 23 -57 rcurveline
            91 34 54 72 93 vvcurveto
            68 -29 41 -50 vhcurveto
            endchar
          </CharString>
          <CharString index="106">
            -31 430 82 rmoveto
            293 vlineto
            -11 callgsubr
            -215 -82 188 hlineto
            7 callgsubr
            -298 -278 -82 454 82 -69 vlineto
            return
          </CharString>
          <CharString index="107">
            vmoveto
            2 callsubr
          </CharString>
          <CharString index="108">
            141 76 -79 -163 -163 -76 -84 -141 hvcurveto
            return
          </CharString>
          <CharString index="109">
            -92 callgsubr
            endchar
          </CharString>
          <CharString index="110">
            598 -67 callgsubr
            return
          </CharString>
          <CharString index="111">
            -12 16 -19 hvcurveto
            return
          </CharString>
          <CharString index="112">
            208 271 rmoveto
            -30 -38 12 33 -39 hvcurveto
            240 vlineto
            40 42 37 35 callgsubr
          </CharString>
          <CharString index="113">
            438 74 -438 -74 hlineto
            return
          </CharString>
          <CharString index="114">
            -24 286 11 callsubr
            77 82 -446 -82 267 18 callgsubr
            return
          </CharString>
          <CharString index="115">
            -79 134 40 callgsubr
            155 -97 -237 302 vlineto
            -187 -480 rlineto
            107 hlineto
            187 473 rlineto
            89 -312 vlineto
            return
          </CharString>
          <CharString index="116">
            rlineto
            58 -8 19 -14 -24 vvcurveto
            -29 -25 -14 -82 -5 vhcurveto
            9 -46 rlineto
            return
          </CharString>
          <CharString index="117">
            375 hlineto
            -11 callgsubr
            return
          </CharString>
          <CharString index="118">
            hmoveto
            107 363 hlineto
            36 5 47 18 34 vhcurveto
            return
          </CharString>
          <CharString index="119">
            -94 -163 -162 return
          </CharString>
          <CharString index="120">
            20 76 rlineto
            9 -22 -31 8 -33 hhcurveto
            -108 -46 -69 -101 hvcurveto
            return
          </CharString>
          <CharString index="121">
            -325 70 210 rmoveto
            106 20 1 63 rlineto
            152 vlineto
            -13 callsubr
            -235 vlineto
            return
          </CharString>
          <CharString index="122">
            -249 158 137 rmoveto
            64 54 52 74 74 -54 52 -64 -64 -54 -52 -74 -74 54 -52 64 hvcurveto
            endchar
          </CharString>
          <CharString index="123">
            -69 callgsubr
            endchar
          </CharString>
          <CharString index="124">
            91 62 76 132 131 -62 75 -91 return
          </CharString>
          <CharString index="125">
            64 56 22 30 45 return
          </CharString>
          <CharString index="126">
            -655 hlineto
            return
          </CharString>
          <CharString index="127">
            37 hlineto
            67 -86 rmoveto
            -26 callgsubr
          </CharString>
          <CharString index="128">
            64 588 rmoveto
            -3 callgsubr
            -4 callsubr
            hvcurveto
            endchar
          </CharString>
          <CharString index="129">
            -218 266 -160 rmoveto
            70 hlineto
            -248 870 rlineto
            -70 hlineto
            248 -870 rlineto
            endchar
          </CharString>
          <CharString index="130">
            19 callsubr
            endchar
          </CharString>
          <CharString index="131">
            -85 callsubr
            17 -12 16 -19 return
          </CharString>
          <CharString index="132">
            -102 23 callsubr
          </CharString>
          <CharString index="133">
            102 298 282 -298 102 return
          </CharString>
          <CharString index="134">
            rlinecurve
            -4 hlineto
            return
          </CharString>
          <CharString index="135">
            -3 hlineto
            -8 68 rlineto
            -83 19 callgsubr
          </CharString>
          <CharString index="136">
            rmoveto
            35 27 25 36 35 -27 25 -35 -35 -27 -25 -35 -36 27 -25 35 hvcurveto
            return
          </CharString>
          <CharString index="137">
            107 445 hlineto
            -13 callsubr
            -445 vlineto
            return
          </CharString>
          <CharString index="138">
            59 43 37 56 57 -43 36 -59 -60 -42 -36 -57 -56 42 -37 60 hvcurveto
            return
          </CharString>
          <CharString index="139">
            rlineto
            84 vlineto
            -148 return
          </CharString>
          <CharString index="140">
            -211 37 callgsubr
            38 71 102 hvcurveto
            return
          </CharString>
          <CharString index="141">
            235 42 218 rmoveto
            716 68 -716 -68 hlineto
            endchar
          </CharString>
          <CharString index="142">
            -85 42 218 rmoveto
            396 68 -396 -68 hlineto
            endchar
          </CharString>
          <CharString index="143">
            rlineto
            4 hlineto
            return
          </CharString>
          <CharString index="144">
            110 142 -67 38 -95 -155 52 -25 rlineto
            return
          </CharString>
          <CharString index="145">
            -29 -21 -25 -12 -47 -8 rrcurveto
            -49 86 -300 return
          </CharString>
          <CharString index="146">
            25 17 4 5 13 return
          </CharString>
          <CharString index="147">
            hlineto
            -217 return
          </CharString>
          <CharString index="148">
            37 callgsubr
            hlineto
            return
          </CharString>
          <CharString index="149">
            -5 77 -199 rmoveto
            101 159 hlineto
            return
          </CharString>
          <CharString index="150">
            hlineto
            2 12 2 18 20 vvcurveto
            138 return
          </CharString>
          <CharString index="151">
            hhcurveto
            56 26 -34 -85 hvcurveto
            -295 101 return
          </CharString>
          <CharString index="152">
            26 22 -19 -32 -32 -22 -19 -26 return
          </CharString>
          <CharString index="153">
            -27 -22 19 32 32 22 19 27 return
          </CharString>
          <CharString index="154">
            rmoveto
            88 36 -88 -36 hlineto
            endchar
          </CharString>
          <CharString index="155">
            -100 rlineto
            42 hlineto
            return
          </CharString>
          <CharString index="156">
            -19 273 return
          </CharString>
        <CharString name=".notdef">
          99 86 hmoveto
          492 660 -492 -660 hlineto
          244 395 rmoveto
          -48 94 -56 102 rlineto
          211 hlineto
          -56 -102 -47 -94 29 callgsubr
          -169 -272 rmoveto
          436 vlineto
          118 -219 -118 -217 rlineto
          341 hmoveto
          -117 217 117 219 rlineto
          -436 vlineto
          -286 -55 rmoveto
          64 116 50 101 36 callsubr
          49 -101 63 -116 rlineto
          -230 hlineto
          endchar
        </CharString>
        <CharString name="A">
          -13 444 hmoveto
          -106 callsubr
        </CharString>
        <CharString name="AE">
          264 499 86 rmoveto
          213 226 86 -226 184 270 86 -433 vlineto
          -334 -655 rlineto
          107 hlineto
          90 179 rlineto
          198 -179 382 86 -280 hlineto
          -260 174 rmoveto
          55 110 33 67 33 70 33 69 rlinecurve
          4 -316 -158 hlineto
          endchar
        </CharString>
        <CharString name="Aacute">
          -13 420 808 rmoveto
          -17 callsubr
          161 116 rlineto
          24 -808 -104 callsubr
        </CharString>
        <CharString name="Abreve">
          -13 274 -38 callgsubr
          170 -703 -104 callsubr
        </CharString>
        <CharString name="Acircumflex">
          -13 272 785 rmoveto
          -58 callsubr
          108 90 rlineto
          172 -785 -104 callsubr
        </CharString>
        <CharString name="Adieresis">
          -13 169 -95 callgsubr
          65 -711 -104 callsubr
        </CharString>
        <CharString name="Agrave">
          -13 334 743 rmoveto
          -13 callgsubr
          45 51 rlineto
          110 -743 -104 callsubr
        </CharString>
        <CharString name="Amacron">
          -13 413 799 rmoveto
          -278 -68 278 68 hlineto
          31 -799 -104 callsubr
        </CharString>
        <CharString name="Aring">
          -13 274 698 rmoveto
          31 callsubr
          144 vmoveto
          45 callsubr
          46 callsubr
          hvcurveto
          170 -842 -104 callsubr
        </CharString>
        <CharString name="Atilde">
          -13 203 771 rmoveto
          43 28 -67 74 hhcurveto
          -63 callgsubr
          hhcurveto
          241 -771 -104 callsubr
        </CharString>
        <CharString name="B">
          -49 callgsubr
          endchar
        </CharString>
        <CharString name="Bethb">
          -25 endchar
        </CharString>
        <CharString name="C">
          9 341 -12 -72 callsubr
        </CharString>
        <CharString name="Ccaron">
          9 279 -64 callgsubr
          62 -717 -72 callsubr
        </CharString>
        <CharString name="Ccedilla">
          9 341 -12 -72 callsubr
        </CharString>
        <CharString name="D">
          -65 callsubr
          endchar
        </CharString>
        <CharString name="E">
          -32 86 hmoveto
          -77 callsubr
        </CharString>
        <CharString name="Eacute">
          -32 271 -56 callgsubr
          -185 -692 -70 callsubr
        </CharString>
        <CharString name="Ebreve">
          -32 286 -38 callgsubr
          -200 -703 -70 callsubr
        </CharString>
        <CharString name="Ecircumflex">
          -32 176 -66 callsubr
          -90 -695 -70 callsubr
        </CharString>
        <CharString name="Edieresis">
          -32 181 -95 callgsubr
          -305 -711 -70 callsubr
        </CharString>
        <CharString name="Egrave">
          -32 301 -34 callsubr
          -215 -692 -70 callsubr
        </CharString>
        <CharString name="Emacron">
          -32 147 -12 callgsubr
          -61 -731 -70 callsubr
        </CharString>
        <CharString name="Eogonek">
          -32 413 -215 rmoveto
          29 37 13 17 21 hvcurveto
          -26 53 rlineto
          -8 -11 -13 -6 -15 hhcurveto
          -23 -23 14 30 50 45 47 45 5 hvcurveto
          4 -79 callgsubr
          302 hlineto
          -36 -23 -40 -47 -56 vvcurveto
          -58 45 -31 56 vhcurveto
          endchar
        </CharString>
        <CharString name="Eth">
          79 279 655 rmoveto
          -170 -286 hlineto
          -78 -4 rlineto
          -50 78 -315 175 vlineto
          -22 callsubr
          -7 -572 rmoveto
          -61 232 142 54 -142 203 61 hlineto
          1 callsubr
          endchar
        </CharString>
        <CharString name="Euro">
          -101 callgsubr
        </CharString>
        <CharString name="Euro.001">
          -101 callgsubr
        </CharString>
        <CharString name="Euro.heb">
          -25 endchar
        </CharString>
        <CharString name="Euro.heb.001">
          -25 endchar
        </CharString>
        <CharString name="Euro.lat">
          -101 callgsubr
        </CharString>
        <CharString name="Euro.lat.001">
          -101 callgsubr
        </CharString>
        <CharString name="F">
          -62 86 hmoveto
          102 282 243 86 -243 201 286 86 -388 23 callsubr
        </CharString>
        <CharString name="G">
          58 353 -12 -91 callsubr
        </CharString>
        <CharString name="Gcaron">
          58 303 -64 callgsubr
          50 -717 -91 callsubr
        </CharString>
        <CharString name="Gdotaccent">
          58 357 710 rmoveto
          31 callgsubr
          -4 -722 -91 callsubr
        </CharString>
        <CharString name="H">
          -20 callgsubr
          endchar
        </CharString>
        <CharString name="Hbar">
          129 664 544 rmoveto
          -72 111 -102 -111 -282 111 -102 -111 hlineto
          -76 -5 rlineto
          -49 76 -490 26 callsubr
          490 72 54 vlineto
          -174 -157 rmoveto
          -282 103 282 -103 hlineto
          endchar
        </CharString>
        <CharString name="I">
          -291 86 hmoveto
          25 callgsubr
        </CharString>
        <CharString name="Iacute">
          -291 122 -56 callgsubr
          -36 -692 32 callgsubr
        </CharString>
        <CharString name="Icircumflex">
          -291 27 -66 callsubr
          59 -695 32 callgsubr
        </CharString>
        <CharString name="Idieresis">
          -291 32 -95 callgsubr
          -156 -711 32 callgsubr
        </CharString>
        <CharString name="Igrave">
          -291 152 -34 callsubr
          -66 -692 32 callgsubr
        </CharString>
        <CharString name="Imacron">
          -291 -2 -12 callgsubr
          88 -731 32 callgsubr
        </CharString>
        <CharString name="J">
          -77 216 -12 rmoveto
          133 56 95 117 hvcurveto
          455 -102 -446 vlineto
          -96 -33 -36 -65 -43 -36 21 50 -28 vhcurveto
          -71 -51 rlineto
          -72 40 61 -37 88 hhcurveto
          endchar
        </CharString>
        <CharString name="K">
          -54 callsubr
          endchar
        </CharString>
        <CharString name="L">
          -70 86 hmoveto
          380 86 -278 569 25 callsubr
        </CharString>
        <CharString name="Lslash">
          -66 194 86 rmoveto
          192 vlineto
          206 110 -36 63 -170 -92 rlineto
          296 -102 -342 vlineto
          -103 -57 36 -63 67 39 rlineto
          -232 380 86 -278 vlineto
          endchar
        </CharString>
        <CharString name="M">
          172 86 hmoveto
          92 326 hlineto
          59 -8 84 -5 59 vhcurveto
          4 hlineto
          52 -151 115 -313 rlineto
          63 hlineto
          115 313 52 151 36 callsubr
          -5 -59 -8 -84 -59 vvcurveto
          -326 94 655 -118 vlineto
          -118 -333 -15 -43 -13 -45 -15 -44 27 callsubr
          -15 44 -14 45 -15 43 -120 333 rcurveline
          -118 23 callsubr
        </CharString>
        <CharString name="N">
          87 86 hmoveto
          -24 callsubr
        </CharString>
        <CharString name="Ntilde">
          87 403 -53 callsubr
          -317 -704 rmoveto
          -24 callsubr
        </CharString>
        <CharString name="O">
          105 335 -12 -102 callgsubr
        </CharString>
        <CharString name="OE">
          289 370 hmoveto
          434 86 -279 213 225 86 -225 184 269 86 -419 hlineto
          -200 -125 -112 -213 -213 125 -117 195 hvcurveto
          12 83 rmoveto
          -145 -82 83 164 164 82 78 145 hvcurveto
          41 -489 -41 hlineto
          endchar
        </CharString>
        <CharString name="Oacute">
          105 320 -56 callgsubr
          15 -704 -102 callgsubr
        </CharString>
        <CharString name="Obreve">
          105 335 -38 callgsubr
          -715 vmoveto
          -105 callsubr
        </CharString>
        <CharString name="Ocircumflex">
          105 225 -66 callsubr
          110 -707 -102 callgsubr
        </CharString>
        <CharString name="Odieresis">
          105 230 -95 callgsubr
          -105 -723 -102 callgsubr
        </CharString>
        <CharString name="Ograve">
          105 350 -34 callsubr
          -15 -704 -102 callgsubr
        </CharString>
        <CharString name="Omacron">
          105 196 -12 callgsubr
          139 -743 -102 callgsubr
        </CharString>
        <CharString name="Oslash">
          105 631 646 rmoveto
          -55 42 -63 -81 rlineto
          39 -47 -60 21 -69 hhcurveto
          -37 callgsubr
          -95 24 -78 41 -58 hvcurveto
          -70 -90 55 -42 63 80 rlineto
          -38 46 59 -21 67 hhcurveto
          -30 callgsubr
          92 -22 77 -40 56 hvcurveto
          71 91 rlineto
          -474 -316 rmoveto
          154 71 94 109 46 40 -17 -31 30 vhcurveto
          -269 -345 rlineto
          -17 39 -10 50 56 vvcurveto
          360 hmoveto
          -154 -71 -99 -109 -45 -38 17 30 -30 vhcurveto
          268 344 rlineto
          16 -38 9 -46 -54 vvcurveto
          endchar
        </CharString>
        <CharString name="Otilde">
          105 409 -53 callsubr
          -74 -716 -102 callgsubr
        </CharString>
        <CharString name="P">
          10 86 hmoveto
          102 249 100 42 callgsubr
          -104 50 -146 hvcurveto
          -198 19 callsubr
          102 331 rmoveto
          242 86 vlineto
          105 54 -29 -87 -86 -50 -40 -105 hvcurveto
          -90 hlineto
          endchar
        </CharString>
        <CharString name="Q">
          105 621 -76 rmoveto
          -6 -18 -23 -4 -29 hhcurveto
          -66 -60 25 55 -30 hvcurveto
          135 28 90 123 185 vvcurveto
          -75 callgsubr
          -190 95 -125 142 -23 vhcurveto
          -94 40 87 -68 126 hhcurveto
          43 36 8 9 21 hvcurveto
          -19 77 rlineto
          -466 406 rmoveto
          -61 callgsubr
          -159 -71 -99 -109 -109 -71 99 159 vhcurveto
          endchar
        </CharString>
        <CharString name="R">
          17 559 hmoveto
          -161 278 rlineto
          83 26 55 61 100 vvcurveto
          142 -101 48 -135 vhcurveto
          -214 -655 102 265 108 hlineto
          148 -265 rlineto
          115 hlineto
          -371 573 rmoveto
          100 hlineto
          95 52 -28 -80 -79 -52 -39 -95 hvcurveto
          -100 226 hlineto
          endchar
        </CharString>
        <CharString name="S">
          -25 273 -12 -96 callsubr
          endchar
        </CharString>
        <CharString name="Sacute">
          -25 267 -56 callgsubr
          6 -704 -96 callsubr
          endchar
        </CharString>
        <CharString name="Scaron">
          -25 228 -64 callgsubr
          45 -717 -96 callsubr
          endchar
        </CharString>
        <CharString name="T">
          3 callgsubr
          endchar
        </CharString>
        <CharString name="Thorn">
          28 86 hmoveto
          102 142 110 42 callgsubr
          -102 50 -144 hvcurveto
          -110 107 49 callgsubr
          102 224 rmoveto
          242 100 vlineto
          103 52 -29 -87 -86 -50 -40 -105 hvcurveto
          -100 hlineto
          endchar
        </CharString>
        <CharString name="U">
          86 326 -12 -89 callsubr
        </CharString>
        <CharString name="Uacute">
          86 310 -56 callgsubr
          16 -704 -89 callsubr
        </CharString>
        <CharString name="Ucircumflex">
          86 215 -66 callsubr
          111 -707 -89 callsubr
        </CharString>
        <CharString name="Udieresis">
          86 220 -95 callgsubr
          -104 -723 -89 callsubr
        </CharString>
        <CharString name="Ugrave">
          86 340 -34 callsubr
          -14 -704 -89 callsubr
        </CharString>
        <CharString name="Umacron">
          86 186 -12 callgsubr
          140 -743 -89 callsubr
        </CharString>
        <CharString name="V">
          -18 callgsubr
          endchar
        </CharString>
        <CharString name="W">
          229 154 hmoveto
          123 hlineto
          87 366 11 51 11 49 9 50 rlinecurve
          4 hlineto
          9 -50 10 -49 11 -51 89 -366 rcurveline
          125 hlineto
          130 655 rlineto
          -98 hlineto
          -62 -342 -11 -69 -11 -70 -12 -71 27 callsubr
          -15 71 -15 71 -15 68 -85 342 rcurveline
          -90 hlineto
          -85 -342 -15 -69 -15 -71 -14 -70 27 callsubr
          -11 70 -12 70 -12 70 -62 342 rcurveline
          -105 hlineto
          134 -655 rlineto
          endchar
        </CharString>
        <CharString name="X">
          -36 14 hmoveto
          108 hlineto
          85 164 16 33 16 33 18 40 rlinecurve
          4 hlineto
          20 -40 17 -33 17 -33 87 -164 rcurveline
          113 hlineto
          -188 333 176 322 rlineto
          -108 hlineto
          -77 -155 -15 -30 -13 -29 -17 -39 27 callsubr
          -20 39 -14 29 -16 30 -80 155 rcurveline
          -113 hlineto
          176 -317 -188 -338 rlineto
          endchar
        </CharString>
        <CharString name="Y">
          -75 194 hmoveto
          -59 callsubr
        </CharString>
        <CharString name="Yacute">
          -75 230 -56 callgsubr
          -36 -692 rmoveto
          -59 callsubr
        </CharString>
        <CharString name="Ydieresis">
          -75 140 -95 callgsubr
          -156 -711 rmoveto
          -59 callsubr
        </CharString>
        <CharString name="Z">
          -28 callgsubr
          endchar
        </CharString>
        <CharString name="ZWJ">
          -150 785 rmoveto
          34 73 233 -73 34 109 -301 -109 hlineto
          endchar
        </CharString>
        <CharString name="ZWNJ">
          -81 767 rmoveto
          81 81 79 -80 24 24 -79 83 79 82 -24 25 -79 -82 -81 84 -23 -27 78 -82 -78 -83 23 -25 rlineto
          endchar
        </CharString>
        <CharString name="Zcaron">
          -25 227 -64 callgsubr
          -185 -705 rmoveto
          -42 callgsubr
          endchar
        </CharString>
        <CharString name="a">
          -54 193 -12 -107 callsubr
        </CharString>
        <CharString name="a.sups">
          -54 callgsubr
        </CharString>
        <CharString name="aacute">
          -54 268 -65 callgsubr
          -75 -585 -107 callsubr
        </CharString>
        <CharString name="abreve">
          -54 275 -41 callsubr
          -82 -583 -107 callsubr
        </CharString>
        <CharString name="acircumflex">
          -54 153 -77 callgsubr
          40 -578 -107 callsubr
        </CharString>
        <CharString name="acute">
          -19 266 -65 callgsubr
          endchar
        </CharString>
        <CharString name="acutecomb">
          -7 -65 callgsubr
          endchar
        </CharString>
        <CharString name="acutecomb.cap">
          -15 -56 callgsubr
          endchar
        </CharString>
        <CharString name="adieresis">
          -54 175 -97 callsubr
          -182 -594 -107 callsubr
        </CharString>
        <CharString name="ae">
          220 199 -12 rmoveto
          64 65 29 58 67 hvcurveto
          -47 39 53 -40 79 hhcurveto
          64 54 22 30 45 hvcurveto
          -36 68 rlineto
          -23 -36 -34 -16 -44 hhcurveto
          -76 -60 57 92 -6 hvcurveto
          307 43 callsubr
          -66 95 -123 -64 -53 -36 -59 -39 vhcurveto
          58 -23 -47 37 -69 hhcurveto
          -72 -67 -32 -32 -50 hvcurveto
          38 -68 rlineto
          26 41 48 24 49 hhcurveto
          73 19 -51 -56 1 hvcurveto
          -200 -22 -89 -55 -106 vvcurveto
          -86 60 -55 84 vhcurveto
          238 295 rmoveto
          87 9 49 52 61 hhcurveto
          68 36 -51 -88 hvcurveto
          -223 hlineto
          -207 -215 rmoveto
          -44 -33 21 48 56 53 36 137 18 hvcurveto
          1 -23 1 -33 6 -34 10 -24 rlinecurve
          -41 -39 -50 -24 -42 hhcurveto
          endchar
        </CharString>
        <CharString name="agrave">
          -54 282 -45 callsubr
          -89 -585 -107 callsubr
        </CharString>
        <CharString name="alphalatin">
          -5 246 -12 rmoveto
          56 55 32 38 35 hvcurveto
          3 hlineto
          -45 9 24 -25 45 hhcurveto
          22 12 3 5 12 hvcurveto
          -1 77 rlineto
          -2 -8 -4 0 -3 hhcurveto
          -12 -8 9 23 hvcurveto
          386 -81 vlineto
          -8 -48 rlineto
          -3 hlineto
          40 -42 -40 20 -53 hhcurveto
          -109 -102 -67 callsubr
          endchar
        </CharString>
        <CharString name="amacron">
          -54 138 3 callsubr
          55 -610 -107 callsubr
        </CharString>
        <CharString name="ampersand">
          -78 callgsubr
        </CharString>
        <CharString name="ampersand.lat">
          -78 callgsubr
        </CharString>
        <CharString name="approxequal">
          -59 340 362 rmoveto
          -48 callgsubr
          -220 vmoveto
          -48 callgsubr
          endchar
        </CharString>
        <CharString name="aring">
          -54 275 557 rmoveto
          -41 callgsubr
          -82 -611 -107 callsubr
        </CharString>
        <CharString name="asciicircum">
          -7 callgsubr
        </CharString>
        <CharString name="asciicircum.lat">
          -7 callgsubr
        </CharString>
        <CharString name="asciitilde">
          -59 340 252 rmoveto
          -48 callgsubr
          endchar
        </CharString>
        <CharString name="asterisk">
          -16 callsubr
        </CharString>
        <CharString name="asterisk.lat">
          -16 callsubr
        </CharString>
        <CharString name="at">
          -86 callsubr
        </CharString>
        <CharString name="at.lat">
          -86 callsubr
        </CharString>
        <CharString name="atilde">
          -54 346 -85 callgsubr
          -153 -588 -107 callsubr
        </CharString>
        <CharString name="b">
          -46 callsubr
          endchar
        </CharString>
        <CharString name="backslash">
          22 callsubr
        </CharString>
        <CharString name="backslash.lat">
          22 callsubr
        </CharString>
        <CharString name="bar">
          -316 90 -250 rmoveto
          69 1000 -69 -1000 hlineto
          endchar
        </CharString>
        <CharString name="braceleft">
          -55 callgsubr
        </CharString>
        <CharString name="braceleft.lat">
          -55 callgsubr
        </CharString>
        <CharString name="braceright">
          -55 callsubr
        </CharString>
        <CharString name="braceright.lat">
          -55 callsubr
        </CharString>
        <CharString name="bracketleft">
          22 callgsubr
        </CharString>
        <CharString name="bracketleft.lat">
          22 callgsubr
        </CharString>
        <CharString name="bracketright">
          23 callgsubr
        </CharString>
        <CharString name="bracketright.lat">
          23 callgsubr
        </CharString>
        <CharString name="breve">
          49 callsubr
          -41 callsubr
          endchar
        </CharString>
        <CharString name="brokenbar">
          -316 90 486 rmoveto
          -474 69 474 -69 vlineto
          endchar
        </CharString>
        <CharString name="bullet">
          15 callsubr
        </CharString>
        <CharString name="bullet.lat">
          15 callsubr
        </CharString>
        <CharString name="c">
          -106 276 -12 -29 callgsubr
        </CharString>
        <CharString name="caron">
          -19 222 -75 callsubr
          endchar
        </CharString>
        <CharString name="ccaron">
          -106 223 -75 callsubr
          53 -587 -29 callgsubr
        </CharString>
        <CharString name="ccedilla">
          -106 282 -63 rmoveto
          23 53 47 6 46 20 37 33 rlinecurve
          -50 callgsubr
          -148 84 -91 115 -15 hvcurveto
          -39 -80 9 callsubr
          21 callgsubr
          endchar
        </CharString>
        <CharString name="cedilla">
          -19 182 -10 callgsubr
        </CharString>
        <CharString name="cent">
          -58 callgsubr
        </CharString>
        <CharString name="cent.heb">
          -25 endchar
        </CharString>
        <CharString name="cent.lat">
          -58 callgsubr
        </CharString>
        <CharString name="chi">
          -71 112 -190 rmoveto
          137 272 36 callsubr
          151 -272 99 24 -202 332 172 323 rlineto
          -106 hlineto
          -114 -235 29 callgsubr
          -138 247 -100 -24 190 -313 -192 -342 103 -12 rlineto
          endchar
        </CharString>
        <CharString name="circledotted">
          18 473 395 rmoveto
          25 -16 13 -21 -7 -7 -2 -3 -5 vhcurveto
          12 -7 -12 6 -15 hhcurveto
          0 -1 0 0 vhcurveto
          3 vlineto
          25 -17 14 -21 -20 -17 -14 -25 -24 17 -15 20 vhcurveto
          1 1 0 1 hhcurveto
          -1 vlineto
          -25 17 -15 19 8 7 2 3 6 vhcurveto
          -11 7 12 -7 13 hhcurveto
          23 14 15 24 hvcurveto
          -288 80 rmoveto
          -20 -17 -13 -26 -24 17 -14 20 22 16 14 24 26 -17 13 -21 hvcurveto
          -78 -81 rmoveto
          -19 48 callgsubr
          -15 19 23 15 15 25 25 -16 13 -22 hvcurveto
          11 -149 rmoveto
          25 -16 13 -23 -19 48 callgsubr
          -14 19 24 15 14 25 vhcurveto
          385 38 rmoveto
          -21 48 callgsubr
          -14 21 22 15 14 25 25 -18 13 -19 hvcurveto
          -396 -109 rmoveto
          -19 -17 -14 -25 -24 17 -14 19 23 15 14 24 25 -16 14 -22 hvcurveto
          369 hmoveto
          -20 -18 -14 -25 -24 18 -14 20 22 15 14 24 25 -17 14 -20 hvcurveto
          -291 -82 rmoveto
          -20 -17 -13 -24 -26 17 -14 20 22 16 14 26 24 -17 13 -21 hvcurveto
          211 hmoveto
          -19 -17 -13 -24 -26 17 -14 19 24 14 14 26 24 -17 13 -21 hvcurveto
          -105 -27 rmoveto
          -19 -17 -14 -24 -25 17 -15 19 23 15 15 25 24 -16 14 -22 hvcurveto
          endchar
        </CharString>
        <CharString name="circumflex">
          -19 151 -77 callgsubr
          endchar
        </CharString>
        <CharString name="colon">
          20 callgsubr
          -350 vmoveto
          28 callgsubr
        </CharString>
        <CharString name="comma">
          -301 136 131 -2 callsubr
        </CharString>
        <CharString name="copyright">
          -76 callgsubr
        </CharString>
        <CharString name="copyright.lat">
          -76 callgsubr
        </CharString>
        <CharString name="currency">
          -59 77 97 rmoveto
          68 70 rlineto
          -22 31 38 -12 39 hhcurveto
          38 38 12 22 31 hvcurveto
          69 -70 52 54 -63 64 rlineto
          22 31 14 38 45 vvcurveto
          46 -14 39 -22 30 vhcurveto
          63 65 -52 53 -68 -69 rlineto
          21 -32 -38 12 -38 hhcurveto
          -39 -38 -12 -21 -31 hvcurveto
          -68 69 -53 -53 63 -65 rlineto
          -22 -30 -13 -39 -46 vvcurveto
          -45 13 -38 22 -31 vhcurveto
          -63 -64 53 -54 rlineto
          176 109 rmoveto
          -60 -49 49 74 74 49 50 60 60 49 -50 -74 -74 -49 -49 -60 hvcurveto
          endchar
        </CharString>
        <CharString name="d">
          -81 callgsubr
          endchar
        </CharString>
        <CharString name="dagger">
          -15 callsubr
        </CharString>
        <CharString name="dagger.lat">
          -15 callsubr
        </CharString>
        <CharString name="daggerdbl">
          -46 callgsubr
        </CharString>
        <CharString name="daggerdbl.lat">
          -46 callgsubr
        </CharString>
        <CharString name="degree">
          -20 callsubr
        </CharString>
        <CharString name="degree.lat">
          -20 callsubr
        </CharString>
        <CharString name="dieresis">
          -19 173 -97 callsubr
          endchar
        </CharString>
        <CharString name="divide">
          -59 253 449 29 callsubr
          -219 -156 47 callgsubr
          219 -204 29 callsubr
          endchar
        </CharString>
        <CharString name="dollar">
          -53 callgsubr
        </CharString>
        <CharString name="dollar.heb">
          -25 endchar
        </CharString>
        <CharString name="dollar.lat">
          -53 callgsubr
        </CharString>
        <CharString name="dotaccent">
          49 callsubr
          -5 callsubr
          endchar
        </CharString>
        <CharString name="dotbelowcomb">
          -212 vmoveto
          -100 callgsubr
        </CharString>
        <CharString name="dotlessi">
          -310 77 hmoveto
          -19 callsubr
        </CharString>
        <CharString name="dotlessj">
          -317 36 33 callsubr
          1 527 rlineto
          -101 hlineto
          -1 -528 rlineto
          -28 callsubr
          endchar
        </CharString>
        <CharString name="e">
          -63 465 270 -104 callgsubr
        </CharString>
        <CharString name="e.sups">
          -44 callgsubr
        </CharString>
        <CharString name="eacute">
          -63 427 727 rmoveto
          -24 callgsubr
          164 154 rlineto
          38 -457 -104 callgsubr
        </CharString>
        <CharString name="ebreve">
          -63 270 -41 callsubr
          195 -301 -104 callgsubr
        </CharString>
        <CharString name="ecircumflex">
          -63 268 673 rmoveto
          -68 callsubr
          120 107 rlineto
          197 -403 -104 callgsubr
        </CharString>
        <CharString name="edieresis">
          -63 170 -97 callsubr
          95 -312 -104 callgsubr
        </CharString>
        <CharString name="egrave">
          -63 328 623 rmoveto
          -25 callsubr
          51 50 rlineto
          137 -353 -104 callgsubr
        </CharString>
        <CharString name="eight">
          -91 callgsubr
        </CharString>
        <CharString name="eight.heb">
          -91 callgsubr
        </CharString>
        <CharString name="eight.lat">
          -91 callgsubr
        </CharString>
        <CharString name="eight.pnumheb">
          -59 endchar
        </CharString>
        <CharString name="eight.pnumlat">
          -59 endchar
        </CharString>
        <CharString name="ellipsis">
          432 166 -12 -83 callsubr
          334 hmoveto
          -90 callgsubr
          334 hmoveto
          28 callgsubr
        </CharString>
        <CharString name="emacron">
          -63 407 666 rmoveto
          -274 -68 274 68 hlineto
          58 -396 -104 callgsubr
        </CharString>
        <CharString name="emdash">
          34 callsubr
        </CharString>
        <CharString name="emdash.lat">
          34 callsubr
        </CharString>
        <CharString name="endash">
          35 callsubr
        </CharString>
        <CharString name="endash.lat">
          35 callsubr
        </CharString>
        <CharString name="eogonek">
          -63 359 -207 rmoveto
          27 37 12 17 21 hvcurveto
          -24 48 rlineto
          -8 -11 -12 -5 -15 hhcurveto
          -25 -21 14 30 41 23 36 87 62 hvcurveto
          -33 callgsubr
          -85 -59 57 94 -8 hvcurveto
          319 -12 callsubr
          -80 callsubr
          14 13 1 5 16 vhcurveto
          -26 -23 -33 -42 -49 vvcurveto
          -58 41 -29 53 vhcurveto
          -218 495 rmoveto
          86 10 55 48 62 4 callgsubr
          -236 hlineto
          endchar
        </CharString>
        <CharString name="eogonek.sups">
          -44 callgsubr
        </CharString>
        <CharString name="equal">
          -59 34 403 47 callgsubr
          -220 vmoveto
          6 callsubr
          endchar
        </CharString>
        <CharString name="estimated">
          235 401 -12 rmoveto
          114 102 53 79 65 hvcurveto
          -52 hlineto
          -68 -55 -82 -43 -91 hhcurveto
          -86 -78 38 61 -54 hvcurveto
          -4 6 -4 7 8 vvcurveto
          183 vlineto
          3 2 1 2 vhcurveto
          575 9 hlineto
          186 -158 150 -196 -196 -159 -150 -186 -186 159 -151 196 vhcurveto
          -221 347 rmoveto
          -2 -2 2 3 hvcurveto
          180 vlineto
          9 4 8 5 6 vhcurveto
          60 55 76 38 86 hhcurveto
          83 76 -37 -58 56 hvcurveto
          5 -6 4 -7 -9 vvcurveto
          -184 vlineto
          -3 -2 -2 -3 vhcurveto
          -441 hlineto
          endchar
        </CharString>
        <CharString name="eth">
          -16 357 604 rmoveto
          126 64 -28 49 -142 -73 -43 35 -47 29 -48 25 rlinecurve
          -45 -63 38 -21 35 -21 32 -24 rlinecurve
          -124 -63 28 -48 142 72 47 -46 34 -56 19 -72 rlinecurve
          40 -32 -47 18 -47 hhcurveto
          -113 -92 -87 -138 -146 104 -90 116 135 87 111 161 155 -56 108 -79 81 hvcurveto
          -84 -533 rmoveto
          -70 -59 59 94 89 48 59 81 41 41 -13 -51 39 hvcurveto
          1 -17 1 -17 -19 vvcurveto
          -113 -43 -71 -80 vhcurveto
          endchar
        </CharString>
        <CharString name="exclam">
          -21 callsubr
        </CharString>
        <CharString name="exclam.lat">
          -21 callsubr
        </CharString>
        <CharString name="exclamdown">
          -261 152 -4 callgsubr
          -51 -539 rmoveto
          102 hlineto
          -3 105 -14 357 rlineto
          -68 hlineto
          -14 -357 -3 -105 rlineto
          endchar
        </CharString>
        <CharString name="exclamdown.lat">
          -261 endchar
        </CharString>
        <CharString name="f">
          -259 260 640 rmoveto
          17 19 -4 -8 18 hvcurveto
          13 callsubr
          -9 callgsubr
          vhcurveto
          endchar
        </CharString>
        <CharString name="fi">
          -4 -21 callgsubr
          340 30 -25 callgsubr
          -51 -581 -19 callgsubr
        </CharString>
        <CharString name="five">
          -79 callsubr
        </CharString>
        <CharString name="five.heb">
          -79 callsubr
        </CharString>
        <CharString name="five.lat">
          -79 callsubr
        </CharString>
        <CharString name="five.pnumheb">
          -59 endchar
        </CharString>
        <CharString name="five.pnumlat">
          -59 endchar
        </CharString>
        <CharString name="fl">
          5 -21 callgsubr
          432 -478 rmoveto
          -10 callsubr
          39 callsubr
          vhcurveto
          -13 76 rlineto
          endchar
        </CharString>
        <CharString name="florin">
          -63 callsubr
        </CharString>
        <CharString name="florin.heb">
          -25 endchar
        </CharString>
        <CharString name="florin.lat">
          -63 callsubr
        </CharString>
        <CharString name="four">
          -68 callgsubr
        </CharString>
        <CharString name="four.heb">
          -68 callgsubr
        </CharString>
        <CharString name="four.lat">
          -68 callgsubr
        </CharString>
        <CharString name="four.pnumheb">
          -59 endchar
        </CharString>
        <CharString name="four.pnumlat">
          -59 endchar
        </CharString>
        <CharString name="fraction">
          -51 callgsubr
        </CharString>
        <CharString name="fraction.lat">
          -51 callgsubr
        </CharString>
        <CharString name="g">
          -52 245 -220 -105 callgsubr
        </CharString>
        <CharString name="gammalatin">
          -82 302 45 rmoveto
          169 444 rlineto
          -98 hlineto
          -84 -244 -14 -44 -15 -33 -14 -44 27 callsubr
          -14 44 -15 33 -14 44 -84 244 rcurveline
          -103 hlineto
          173 -444 rlineto
          12 hlineto
          -11 -56 -5 -41 -45 vvcurveto
          -64 28 -45 35 35 28 45 64 43 -5 43 -11 56 vhcurveto
          11 hlineto
          endchar
        </CharString>
        <CharString name="gcaron">
          -52 213 -75 callsubr
          32 -795 -105 callgsubr
        </CharString>
        <CharString name="gdotaccent">
          -52 264 -5 callsubr
          -19 -801 -105 callgsubr
        </CharString>
        <CharString name="germandbls">
          27 397 -12 rmoveto
          105 62 67 86 hvcurveto
          160 -191 -17 88 64 87 32 99 vvcurveto
          81 -61 71 -114 -135 -73 -86 -126 vhcurveto
          -507 100 491 vlineto
          96 40 51 67 51 27 -35 -47 vhcurveto
          -81 -83 -29 -86 -137 191 17 -104 vvcurveto
          -38 -27 -33 -49 -36 -32 13 28 -35 vhcurveto
          -38 -70 rlineto
          -30 43 45 -18 56 hhcurveto
          endchar
        </CharString>
        <CharString name="glottalstopreversedsupmod">
          -251 133 389 rmoveto
          73 212 hlineto
          -77 46 -32 34 50 vvcurveto
          46 31 27 51 37 28 -20 -25 20 vhcurveto
          37 47 rlineto
          31 -27 -41 27 -61 hhcurveto
          -82 -67 -44 -87 -74 46 -42 64 -45 hvcurveto
          -183 vlineto
          endchar
        </CharString>
        <CharString name="grave">
          -19 280 -45 callsubr
          endchar
        </CharString>
        <CharString name="gravecomb">
          7 -45 callsubr
          endchar
        </CharString>
        <CharString name="gravecomb.cap">
          15 -34 callsubr
          endchar
        </CharString>
        <CharString name="greater">
          -59 34 123 rmoveto
          438 171 rlineto
          76 vlineto
          -438 171 rlineto
          -86 vlineto
          335 -121 rlineto
          -4 vlineto
          -335 -121 rlineto
          -86 vlineto
          endchar
        </CharString>
        <CharString name="greaterequal">
          -59 34 153 rmoveto
          438 150 rlineto
          88 vlineto
          -438 150 rlineto
          -86 vlineto
          199 -65 136 -41 rlineto
          -4 vlineto
          -136 -41 -199 -65 rlineto
          -86 vlineto
          -153 vmoveto
          6 callsubr
          endchar
        </CharString>
        <CharString name="guillemotleft">
          -35 callgsubr
        </CharString>
        <CharString name="guillemotleft.lat">
          -35 callgsubr
        </CharString>
        <CharString name="guillemotright">
          -34 callgsubr
        </CharString>
        <CharString name="guillemotright.lat">
          -34 callgsubr
        </CharString>
        <CharString name="guilsinglleft">
          -288 -52 callsubr
          endchar
        </CharString>
        <CharString name="guilsinglleft.lat">
          -288 -52 callsubr
          endchar
        </CharString>
        <CharString name="guilsinglright">
          -288 -51 callsubr
          endchar
        </CharString>
        <CharString name="guilsinglright.lat">
          -288 -51 callsubr
          endchar
        </CharString>
        <CharString name="h">
          -76 callsubr
          endchar
        </CharString>
        <CharString name="hbar">
          -13 333 459 rmoveto
          -67 -49 -36 -41 -43 hvcurveto
          4 97 rlineto
          88 178 54 -178 88 -101 -88 vlineto
          -72 -5 rlineto
          -49 72 -567 101 305 vlineto
          -31 callsubr
          -253 101 266 vlineto
          124 -46 69 -104 vhcurveto
          endchar
        </CharString>
        <CharString name="hungarumlaut">
          -19 222 9 callgsubr
        </CharString>
        <CharString name="hyphen">
          -6 callgsubr
        </CharString>
        <CharString name="i">
          -310 128 -5 callsubr
          -51 -581 -19 callgsubr
        </CharString>
        <CharString name="iacute">
          -310 121 -65 callgsubr
          -44 -573 -19 callgsubr
        </CharString>
        <CharString name="icircumflex">
          -310 6 -77 callgsubr
          71 -566 -19 callgsubr
        </CharString>
        <CharString name="idieresis">
          -310 28 -97 callsubr
          -151 -582 -19 callgsubr
        </CharString>
        <CharString name="igrave">
          -310 135 -45 callsubr
          -58 -573 -19 callgsubr
        </CharString>
        <CharString name="imacron">
          -310 -9 3 callsubr
          86 -598 -19 callgsubr
        </CharString>
        <CharString name="infinity">
          226 573 137 rmoveto
          102 77 78 122 106 -75 76 -101 -84 -61 -53 -64 -49 hvcurveto
          -4 hlineto
          48 -36 -52 53 -80 hhcurveto
          -99 -72 -68 -113 -89 70 -75 87 80 55 58 42 35 hvcurveto
          4 hlineto
          -77 61 57 -44 85 hhcurveto
          95 vmoveto
          -60 -43 43 68 -52 hvcurveto
          65 46 48 35 54 hhcurveto
          68 41 -44 -65 -55 -38 -47 -64 hvcurveto
          -368 2 rmoveto
          -51 -38 40 51 51 34 32 52 48 42 -36 -54 38 hvcurveto
          -47 -32 -42 -37 -51 hhcurveto
          endchar
        </CharString>
        <CharString name="integral">
          -216 100 -158 rmoveto
          126 26 100 134 hvcurveto
          153 -40 182 148 vvcurveto
          100 11 53 54 14 12 -1 -3 9 vhcurveto
          11 75 rlineto
          4 -9 -20 3 -20 hhcurveto
          -128 -26 -101 -133 hvcurveto
          -153 41 -183 -148 vvcurveto
          -101 -11 -51 -55 -14 -12 1 3 -9 vhcurveto
          -11 -75 rlineto
          -4 10 19 -3 22 hhcurveto
          endchar
        </CharString>
        <CharString name="ismall">
          -208 48 hmoveto
          261 81 -80 327 80 81 -261 -81 80 -327 -80 -81 hlineto
          endchar
        </CharString>
        <CharString name="j">
          -309 129 -5 callsubr
          -48 -620 rmoveto
          -28 callsubr
          108 38 71 102 hvcurveto
          1 527 rlineto
          -101 hlineto
          -1 -528 rlineto
          endchar
        </CharString>
        <CharString name="j.sups">
          -390 89 770 rmoveto
          27 20 18 25 25 -20 18 -27 -27 -20 -18 -25 -25 20 -18 27 hvcurveto
          -65 -523 rmoveto
          74 27 49 72 hvcurveto
          345 -74 -349 vlineto
          -38 -7 -19 -30 -12 -8 2 3 -8 vhcurveto
          -14 -57 rlineto
          -5 15 13 -3 24 hhcurveto
          endchar
        </CharString>
        <CharString name="k">
          -52 callgsubr
          endchar
        </CharString>
        <CharString name="l">
          -8 callsubr
        </CharString>
        <CharString name="lefttorightembed">
          34 callgsubr
          -76 -36 76 hlineto
          -63 -66 25 -25 rlineto
          -168 91 47 callsubr
        </CharString>
        <CharString name="less">
          -59 472 123 rmoveto
          86 vlineto
          -335 121 rlineto
          4 vlineto
          335 121 rlineto
          86 vlineto
          -438 -171 rlineto
          -76 vlineto
          438 -171 rlineto
          endchar
        </CharString>
        <CharString name="lessequal">
          -59 472 153 rmoveto
          86 vlineto
          -199 65 -136 41 rlineto
          4 45 callgsubr
          41 199 65 rlineto
          86 vlineto
          -438 -150 rlineto
          -88 vlineto
          438 -150 rlineto
          -438 -153 47 callgsubr
          endchar
        </CharString>
        <CharString name="litre">
          -138 384 117 rmoveto
          -22 -24 -28 -22 -40 hhcurveto
          -47 -39 33 85 hvcurveto
          32 vlineto
          129 105 70 110 125 vvcurveto
          101 -57 57 -83 -90 -68 -66 -158 vhcurveto
          -256 vlineto
          -27 -20 -30 -20 -32 -20 40 -63 rcurveline
          17 11 17 11 16 11 rrcurveto
          -107 11 74 -56 84 hhcurveto
          62 48 34 33 36 hvcurveto
          -39 62 rlineto
          -116 528 rmoveto
          30 22 -24 -59 -87 -41 -77 -73 -73 hvcurveto
          188 vlineto
          93 29 39 33 vhcurveto
          endchar
        </CharString>
        <CharString name="logicalnot">
          -59 394 101 rmoveto
          78 266 -438 -74 360 -192 hlineto
          endchar
        </CharString>
        <CharString name="lozenge">
          -39 219 -10 rmoveto
          88 hlineto
          164 340 -164 340 rlineto
          -88 hlineto
          -164 -340 164 -340 rlineto
          42 85 rmoveto
          -60 129 -59 126 59 125 60 130 36 callsubr
          60 -130 59 -125 -59 -126 -60 -129 29 callgsubr
          endchar
        </CharString>
        <CharString name="lslash">
          -291 208 71 rmoveto
          -12 -12 10 27 hvcurveto
          259 vlineto
          88 52 -36 64 -52 -32 rlineto
          258 -101 -309 vlineto
          -90 -54 36 -64 54 33 rlineto
          -201 vlineto
          -79 28 -47 73 39 callsubr
          vhcurveto
          -13 76 rlineto
          -2 -9 -4 0 -5 hhcurveto
          endchar
        </CharString>
        <CharString name="m">
          272 77 hmoveto
          50 callgsubr
          hlineto
          45 41 37 22 33 44 callsubr
          347 vlineto
          45 41 36 22 34 44 callsubr
          41 callgsubr
          124 -48 69 -102 -61 -49 -38 -52 -49 vhcurveto
          56 -21 -41 34 -73 hhcurveto
          -60 -49 -36 -44 -42 hvcurveto
          28 callsubr
        </CharString>
        <CharString name="macron">
          -19 136 3 callsubr
          endchar
        </CharString>
        <CharString name="minus">
          -59 34 293 47 callgsubr
          endchar
        </CharString>
        <CharString name="multiply">
          -59 102 122 rmoveto
          151 155 151 -155 52 54 -151 154 151 154 -52 53 -151 -155 -151 155 -53 -53 151 -154 -151 -154 53 -54 rlineto
          endchar
        </CharString>
        <CharString name="n">
          -11 77 hmoveto
          -74 callgsubr
          -50 -36 -44 -45 vhcurveto
          28 callsubr
        </CharString>
        <CharString name="newsheqel">
          -59 endchar
        </CharString>
        <CharString name="newsheqel.heb">
          -25 endchar
        </CharString>
        <CharString name="newsheqel.lat">
          -79 endchar
        </CharString>
        <CharString name="nine">
          -87 callgsubr
        </CharString>
        <CharString name="nine.heb">
          -87 callgsubr
        </CharString>
        <CharString name="nine.lat">
          -87 callgsubr
        </CharString>
        <CharString name="nine.pnumheb">
          -59 endchar
        </CharString>
        <CharString name="nine.pnumlat">
          -59 endchar
        </CharString>
        <CharString name="notequal">
          -59 58 58 rmoveto
          70 hlineto
          75 125 rlineto
          269 74 -227 hlineto
          86 146 rlineto
          141 74 -99 hlineto
          75 125 rlineto
          -70 hlineto
          -75 -125 rlineto
          -269 -74 227 hlineto
          -86 -146 rlineto
          -141 -74 99 hlineto
          -75 -125 rlineto
          endchar
        </CharString>
        <CharString name="ntilde">
          -11 370 -85 callgsubr
          -293 -576 rmoveto
          -74 callgsubr
          -50 -36 -44 -45 vhcurveto
          28 callsubr
        </CharString>
        <CharString name="numbersign">
          -62 callsubr
        </CharString>
        <CharString name="numbersign.heb">
          -25 endchar
        </CharString>
        <CharString name="numbersign.lat">
          -62 callsubr
        </CharString>
        <CharString name="o">
          49 callsubr
          -12 -99 callsubr
        </CharString>
        <CharString name="o.sups">
          -23 callsubr
        </CharString>
        <CharString name="oacute">
          -19 266 -65 callgsubr
          7 -585 -99 callsubr
        </CharString>
        <CharString name="obreve">
          49 callsubr
          -41 callsubr
          -583 vmoveto
          -101 callsubr
        </CharString>
        <CharString name="ocircumflex">
          -19 151 -77 callgsubr
          122 -578 -99 callsubr
        </CharString>
        <CharString name="odieresis">
          -19 173 -97 callsubr
          -100 -594 -99 callsubr
        </CharString>
        <CharString name="oe">
          269 265 -12 rmoveto
          78 58 38 73 39 hvcurveto
          -69 38 64 -42 71 hhcurveto
          18 callsubr
          hvcurveto
          -36 68 rlineto
          -23 -36 -36 -16 -44 hhcurveto
          -76 -61 57 92 -6 hvcurveto
          310 43 callsubr
          -68 95 -123 -68 -61 -42 -70 -38 vhcurveto
          72 -36 -63 40 -73 hhcurveto
          -120 -104 12 callsubr
          102 -94 120 hvcurveto
          218 295 rmoveto
          87 9 50 52 61 hhcurveto
          68 38 -51 -88 hvcurveto
          -226 hlineto
          -216 -212 rmoveto
          -72 -49 69 104 104 49 70 72 73 49 -70 -104 -104 -49 -69 -73 hvcurveto
          endchar
        </CharString>
        <CharString name="ogonek">
          -19 endchar
        </CharString>
        <CharString name="ograve">
          -19 280 -45 callsubr
          -7 -585 -99 callsubr
        </CharString>
        <CharString name="omacron">
          -19 136 3 callsubr
          137 -610 -99 callsubr
        </CharString>
        <CharString name="one">
          -32 callgsubr
        </CharString>
        <CharString name="one.heb">
          -32 callgsubr
        </CharString>
        <CharString name="one.lat">
          -32 callgsubr
        </CharString>
        <CharString name="one.pnumheb">
          -127 endchar
        </CharString>
        <CharString name="one.pnumlat">
          -184 164 hmoveto
          101 637 6 callgsubr
          -523 vlineto
          endchar
        </CharString>
        <CharString name="one.sups">
          -195 endchar
        </CharString>
        <CharString name="one.supsheb">
          -115 endchar
        </CharString>
        <CharString name="one.supslat">
          -135 endchar
        </CharString>
        <CharString name="onehalf">
          254 180 -73 callgsubr
        </CharString>
        <CharString name="onehalf.heb">
          -25 endchar
        </CharString>
        <CharString name="onehalf.lat">
          254 180 -80 callgsubr
          -20 147 rmoveto
          77 390 -62 hlineto
          38 callsubr
          vlineto
          339 -135 rmoveto
          274 65 -151 hlineto
          75 78 58 60 71 vvcurveto
          83 -54 45 -80 -55 -48 -30 -47 -33 vhcurveto
          45 -41 rlineto
          31 22 27 23 31 hhcurveto
          43 27 -29 -47 -56 -66 -62 -115 -101 hvcurveto
          -43 vlineto
          endchar
        </CharString>
        <CharString name="onequarter">
          244 192 -73 callgsubr
        </CharString>
        <CharString name="onequarter.heb">
          -25 endchar
        </CharString>
        <CharString name="onequarter.lat">
          244 551 667 rmoveto
          -3 callsubr
          -56 callsubr
          -314 -532 rmoveto
          390 -62 vlineto
          38 callsubr
          77 vlineto
          547 17 -7 callsubr
        </CharString>
        <CharString name="ordfeminine">
          -54 callgsubr
        </CharString>
        <CharString name="ordmasculine">
          -23 callsubr
        </CharString>
        <CharString name="oslash">
          -19 endchar
        </CharString>
        <CharString name="otilde">
          -19 344 -85 callgsubr
          -71 -588 -99 callsubr
        </CharString>
        <CharString name="p">
          42 callsubr
          -3 83 rlineto
          -35 42 44 -20 44 43 callgsubr
          -69 98 -124 -55 -53 -30 -36 -43 hvcurveto
          -3 hlineto
          -8 54 rlineto
          -83 -688 hlineto
          5 callsubr
        </CharString>
        <CharString name="paragraph">
          -6 callsubr
        </CharString>
        <CharString name="paragraph.lat">
          -6 callsubr
        </CharString>
        <CharString name="parenleft">
          -27 callsubr
        </CharString>
        <CharString name="parenleft.lat">
          -27 callsubr
        </CharString>
        <CharString name="parenright">
          -26 callsubr
        </CharString>
        <CharString name="parenright.lat">
          -26 callsubr
        </CharString>
        <CharString name="partialdiff">
          -23 281 667 rmoveto
          -64 -55 -26 -43 -46 hvcurveto
          45 -63 rlineto
          32 32 37 17 41 hhcurveto
          84 47 -64 -151 -11 0 -10 -1 -10 hvcurveto
          43 -37 -53 26 -53 hhcurveto
          -132 -84 -92 -133 -120 87 -74 99 161 110 153 230 197 -81 99 -137 hvcurveto
          -42 -596 rmoveto
          -55 -47 44 73 84 45 56 86 42 44 -19 -52 39 hvcurveto
          -123 -21 -58 -63 -75 hhcurveto
          endchar
        </CharString>
        <CharString name="percent">
          264 202 -73 callgsubr
        </CharString>
        <CharString name="percent.heb">
          -25 endchar
        </CharString>
        <CharString name="percent.lat">
          269 202 -80 callgsubr
          -17 135 -11 callsubr
          459 -195 -11 callsubr
          endchar
        </CharString>
        <CharString name="period">
          -301 132 -12 -73 callsubr
        </CharString>
        <CharString name="periodcentered">
          16 callgsubr
        </CharString>
        <CharString name="periodcentered.lat">
          16 callgsubr
        </CharString>
        <CharString name="perthousand">
          -51 callgsubr
        </CharString>
        <CharString name="perthousand.heb">
          -25 endchar
        </CharString>
        <CharString name="perthousand.lat">
          645 369 667 rmoveto
          -75 -142 rlineto
          8 -18 -20 4 -21 hhcurveto
          -91 -62 -75 -131 -59 12 -48 22 -35 hvcurveto
          -106 -201 rlineto
          64 hlineto
          83 158 rlineto
          -15 23 26 -8 29 hhcurveto
          91 62 76 132 70 -18 54 -30 35 hvcurveto
          93 177 rlineto
          -64 hlineto
          -213 -336 rmoveto
          101 33 45 46 11 10 -2 -5 9 vhcurveto
          -105 -197 rlineto
          -2 17 -2 19 22 vvcurveto
          158 hmoveto
          -101 -33 -47 -46 -18 -16 7 15 -12 vhcurveto
          113 214 rlineto
          8 -22 4 -29 -37 vvcurveto
          328 71 rmoveto
          17 callgsubr
          17 callsubr
          hvcurveto
          368 hmoveto
          17 callgsubr
          17 callsubr
          hvcurveto
          -368 -354 rmoveto
          -22 callgsubr
          368 hmoveto
          -22 callgsubr
          endchar
        </CharString>
        <CharString name="pi">
          35 496 -12 rmoveto
          31 25 6 6 17 hvcurveto
          -13 76 rlineto
          -3 -17 -12 -2 -9 hhcurveto
          -30 -15 13 34 40 1 146 6 103 hvcurveto
          96 82 -484 hlineto
          -71 -5 rlineto
          -77 111 vlineto
          -125 -12 -146 -23 -136 vhcurveto
          102 -6 rlineto
          14 134 14 148 131 vvcurveto
          156 hlineto
          -1 -99 -4 -140 -44 vvcurveto
          -86 31 -50 87 vhcurveto
          endchar
        </CharString>
        <CharString name="plus">
          -59 214 101 rmoveto
          78 192 180 74 -180 192 -78 -192 -180 -74 180 -192 hlineto
          endchar
        </CharString>
        <CharString name="plusminus">
          -59 214 136 rmoveto
          78 165 180 74 -180 184 -78 -184 -180 -74 180 -165 hlineto
          -180 -136 47 callgsubr
          endchar
        </CharString>
        <CharString name="popdirectionformat">
          -19 765 rmoveto
          36 160 hlineto
          62 -64 25 26 -104 107 -104 -107 25 -26 60 63 rlineto
          -159 vlineto
          endchar
        </CharString>
        <CharString name="product">
          119 86 -120 rmoveto
          102 668 307 -668 103 757 -512 -757 hlineto
          endchar
        </CharString>
        <CharString name="q">
          -5 382 -199 rmoveto
          101 688 -80 hlineto
          -9 -47 rlineto
          -3 hlineto
          39 -42 -39 20 -56 hhcurveto
          -109 -100 10 callgsubr
          53 50 28 36 37 hvcurveto
          -4 -85 rlineto
          -166 vlineto
          -112 271 -62 callgsubr
          endchar
        </CharString>
        <CharString name="question">
          -45 callgsubr
        </CharString>
        <CharString name="question.lat">
          -45 callgsubr
        </CharString>
        <CharString name="questiondown">
          -47 callgsubr
        </CharString>
        <CharString name="questiondown.lat">
          -47 callgsubr
        </CharString>
        <CharString name="quotedbl">
          -107 -5 callgsubr
          194 hmoveto
          -17 callgsubr
          endchar
        </CharString>
        <CharString name="quotedbl.lat">
          -107 endchar
        </CharString>
        <CharString name="quotedblbase">
          -107 136 138 -49 callsubr
        </CharString>
        <CharString name="quotedblbase.lat">
          -107 endchar
        </CharString>
        <CharString name="quotedblleft">
          -107 199 646 rmoveto
          -35 callsubr
          -3 -3 0 -1 -3 vhcurveto
          58 27 35 53 32 vhcurveto
          123 -124 -43 callsubr
        </CharString>
        <CharString name="quotedblleft.lat">
          -107 endchar
        </CharString>
        <CharString name="quotedblright">
          -107 136 698 -49 callsubr
        </CharString>
        <CharString name="quotedblright.lat">
          -107 endchar
        </CharString>
        <CharString name="quoteleft">
          -15 callgsubr
        </CharString>
        <CharString name="quoteleft.lat">
          -15 callgsubr
        </CharString>
        <CharString name="quoteright">
          -14 callgsubr
        </CharString>
        <CharString name="quoteright.lat">
          -14 callgsubr
        </CharString>
        <CharString name="quotesinglbase">
          -16 callgsubr
        </CharString>
        <CharString name="quotesinglbase.lat">
          -16 callgsubr
        </CharString>
        <CharString name="quotesingle">
          -301 -5 callgsubr
          endchar
        </CharString>
        <CharString name="quotesingle.lat">
          -301 -5 callgsubr
          endchar
        </CharString>
        <CharString name="r">
          -203 77 hmoveto
          101 305 hlineto
          78 31 48 28 40 hhcurveto
          20 12 -3 -5 17 hvcurveto
          18 88 rlineto
          7 -15 -15 3 -24 hhcurveto
          -53 -51 -37 -63 -35 hvcurveto
          -3 hlineto
          -8 88 rlineto
          -83 19 callgsubr
        </CharString>
        <CharString name="radical">
          1 280 -91 rmoveto
          74 hlineto
          217 911 rlineto
          -71 hlineto
          -172 -736 -5 -23 -4 -23 -4 -23 27 callsubr
          -5 23 -6 23 -7 23 -111 331 rcurveline
          -145 -62 21 -52 72 31 150 -423 rlineto
          endchar
        </CharString>
        <CharString name="registered">
          -64 callsubr
        </CharString>
        <CharString name="registered.lat">
          -64 callsubr
        </CharString>
        <CharString name="righttoleftembed">
          44 callgsubr
          75 36 -76 39 callgsubr
          80 90 47 callsubr
        </CharString>
        <CharString name="ring">
          49 callsubr
          557 rmoveto
          -41 callgsubr
          endchar
        </CharString>
        <CharString name="ringhalfleftmod">
          -396 endchar
        </CharString>
        <CharString name="ringhalfrightmod">
          -396 endchar
        </CharString>
        <CharString name="rsmall">
          -59 479 hmoveto
          -128 199 rlineto
          56 21 42 45 74 vvcurveto
          112 -83 38 -107 vhcurveto
          -182 -489 101 183 80 hlineto
          109 -183 rlineto
          112 hlineto
          -301 413 rmoveto
          66 hlineto
          66 38 -24 -52 -52 -38 -30 -66 hvcurveto
          -66 158 hlineto
          endchar
        </CharString>
        <CharString name="rsmallinverted">
          -59 328 489 rmoveto
          -181 -80 vlineto
          -108 181 rlineto
          -113 hlineto
          129 -197 rlineto
          -56 -21 -43 -45 -75 vvcurveto
          -112 83 -39 107 vhcurveto
          182 489 -101 hlineto
          -412 vmoveto
          -65 hlineto
          -67 -38 24 53 52 38 31 67 hvcurveto
          65 -160 hlineto
          endchar
        </CharString>
        <CharString name="s">
          -139 210 -12 -93 callsubr
          endchar
        </CharString>
        <CharString name="sacute">
          -139 221 -65 callgsubr
          -11 -585 -93 callsubr
          endchar
        </CharString>
        <CharString name="scaron">
          -139 177 -75 callsubr
          33 -587 -93 callsubr
          endchar
        </CharString>
        <CharString name="section">
          -59 endchar
        </CharString>
        <CharString name="section.lat">
          -59 endchar
        </CharString>
        <CharString name="semicolon">
          20 callgsubr
          4 -207 -2 callsubr
        </CharString>
        <CharString name="seven">
          -43 callgsubr
        </CharString>
        <CharString name="seven.heb">
          -43 callgsubr
        </CharString>
        <CharString name="seven.lat">
          -43 callgsubr
        </CharString>
        <CharString name="seven.pnumheb">
          -60 endchar
        </CharString>
        <CharString name="seven.pnumlat">
          -67 162 hmoveto
          103 hlineto
          11 249 26 138 148 188 rrcurveto
          62 -406 -86 294 vlineto
          -122 -172 -43 30 callgsubr
        </CharString>
        <CharString name="six">
          -88 callsubr
        </CharString>
        <CharString name="six.heb">
          -88 callsubr
        </CharString>
        <CharString name="six.lat">
          -88 callsubr
        </CharString>
        <CharString name="six.pnumheb">
          -59 endchar
        </CharString>
        <CharString name="six.pnumlat">
          -59 endchar
        </CharString>
        <CharString name="slash">
          24 callgsubr
        </CharString>
        <CharString name="slash.lat">
          24 callgsubr
        </CharString>
        <CharString name="space">
          -365 endchar
        </CharString>
        <CharString name="sterling">
          -60 callgsubr
        </CharString>
        <CharString name="sterling.heb">
          -25 endchar
        </CharString>
        <CharString name="sterling.lat">
          -60 callgsubr
        </CharString>
        <CharString name="summation">
          -52 23 -120 rmoveto
          485 86 -358 4 hlineto
          208 289 -199 288 rlineto
          4 322 86 -447 -63 vlineto
          218 -316 -229 -315 rlineto
          -63 vlineto
          endchar
        </CharString>
        <CharString name="t">
          -66 callgsubr
          endchar
        </CharString>
        <CharString name="theta">
          -35 265 -12 rmoveto
          128 81 116 253 240 -81 124 -128 -128 -81 -124 -240 -253 81 -116 128 hvcurveto
          83 vmoveto
          -63 -47 68 218 208 47 73 63 63 47 -73 -208 -218 -47 -68 -63 hvcurveto
          -154 252 rmoveto
          70 308 -70 -308 vlineto
          endchar
        </CharString>
        <CharString name="thorn">
          42 callsubr
          -2 80 rlineto
          -33 41 41 -19 47 43 callgsubr
          -71 98 -127 -51 -49 -26 -33 -41 hvcurveto
          2 80 rlineto
          187 -101 -908 vlineto
          5 callsubr
        </CharString>
        <CharString name="three">
          -96 callgsubr
        </CharString>
        <CharString name="three.heb">
          -96 callgsubr
        </CharString>
        <CharString name="three.lat">
          -96 callgsubr
        </CharString>
        <CharString name="three.pnumheb">
          -59 endchar
        </CharString>
        <CharString name="three.pnumlat">
          -96 callgsubr
        </CharString>
        <CharString name="three.sups">
          -195 endchar
        </CharString>
        <CharString name="three.supsheb">
          -115 endchar
        </CharString>
        <CharString name="three.supslat">
          -135 endchar
        </CharString>
        <CharString name="threequarters">
          254 217 -73 callgsubr
        </CharString>
        <CharString name="threequarters.heb">
          -25 endchar
        </CharString>
        <CharString name="threequarters.lat">
          254 576 667 rmoveto
          -3 callsubr
          -56 callsubr
          -252 -426 rmoveto
          50 -37 33 -43 13 vhcurveto
          39 19 26 30 45 vvcurveto
          66 -59 40 -69 -56 -40 -24 -41 -36 vhcurveto
          45 -40 rlineto
          26 21 26 19 28 hhcurveto
          39 25 -22 -34 -38 -36 -26 -62 hvcurveto
          -47 vlineto
          73 40 -22 -42 -40 -32 -23 -40 -38 -32 20 35 -24 hvcurveto
          -49 -38 rlineto
          -46 31 53 -31 65 hhcurveto
          77 65 46 72 hvcurveto
          470 -89 -7 callsubr
        </CharString>
        <CharString name="tilde">
          -19 344 -85 callgsubr
          endchar
        </CharString>
        <CharString name="tildecomb">
          71 -85 callgsubr
          endchar
        </CharString>
        <CharString name="tildecomb.cap">
          74 -53 callsubr
          endchar
        </CharString>
        <CharString name="trademark">
          -47 callsubr
        </CharString>
        <CharString name="trademark.lat">
          -47 callsubr
        </CharString>
        <CharString name="two">
          -74 callsubr
        </CharString>
        <CharString name="two.heb">
          -74 callsubr
        </CharString>
        <CharString name="two.lat">
          -74 callsubr
        </CharString>
        <CharString name="two.pnumheb">
          -55 endchar
        </CharString>
        <CharString name="two.pnumlat">
          -57 44 hmoveto
          412 86 -158 hlineto
          -32 -41 -3 -3 -34 hvcurveto
          135 144 104 117 116 vvcurveto
          116 -74 76 -120 -84 -58 -35 -63 -58 vhcurveto
          57 -56 rlineto
          40 35 44 33 51 hhcurveto
          74 35 -46 -70 -100 -107 -113 -181 -180 hvcurveto
          -59 vlineto
          endchar
        </CharString>
        <CharString name="two.sups">
          -195 endchar
        </CharString>
        <CharString name="two.supsheb">
          -115 endchar
        </CharString>
        <CharString name="two.supslat">
          -135 endchar
        </CharString>
        <CharString name="u">
          -14 221 -12 -92 callsubr
        </CharString>
        <CharString name="uacute">
          -14 274 -65 callgsubr
          -53 -585 -92 callsubr
        </CharString>
        <CharString name="ucircumflex">
          -14 159 -77 callgsubr
          62 -578 -92 callsubr
        </CharString>
        <CharString name="udieresis">
          -14 181 -97 callsubr
          -160 -594 -92 callsubr
        </CharString>
        <CharString name="ugrave">
          -14 288 -45 callsubr
          -67 -585 -92 callsubr
        </CharString>
        <CharString name="umacron">
          -14 144 3 callsubr
          77 -610 -92 callsubr
        </CharString>
        <CharString name="underscore">
          -65 12 -130 rmoveto
          476 63 -476 -63 hlineto
          endchar
        </CharString>
        <CharString name="uni00A0">
          -361 endchar
        </CharString>
        <CharString name="uni00AD">
          -6 callgsubr
        </CharString>
        <CharString name="uni018F">
          98 334 667 rmoveto
          -93 -72 -33 -45 -48 hvcurveto
          48 -70 rlineto
          36 38 53 28 64 hhcurveto
          117 64 -78 -149 6 hvcurveto
          -453 hlineto
          -1 -11 -1 -11 -10 vvcurveto
          -209 103 -127 171 171 112 122 219 219 -108 119 -171 vhcurveto
          -4 -595 rmoveto
          -98 -66 73 135 -6 hvcurveto
          350 hlineto
          -138 -13 -66 -70 -101 hhcurveto
          endchar
        </CharString>
        <CharString name="uni0250">
          -47 272 -12 rmoveto
          73 67 32 32 47 hvcurveto
          -38 68 rlineto
          -26 -40 -44 -24 -51 hhcurveto
          -87 -26 53 54 -2 hvcurveto
          204 23 89 62 110 vvcurveto
          80 -53 49 -79 -65 -58 -31 -47 -45 vhcurveto
          -3 hlineto
          -8 66 rlineto
          -83 -287 hlineto
          -132 63 -82 139 vhcurveto
          -101 254 rmoveto
          110 vlineto
          47 44 40 22 42 hhcurveto
          39 30 -19 -45 -57 -49 -39 -146 -19 hvcurveto
          endchar
        </CharString>
        <CharString name="uni0254">
          -106 183 -12 rmoveto
          130 103 94 162 165 -105 92 -120 -72 -50 -25 -31 -37 hvcurveto
          50 -66 rlineto
          25 28 27 14 43 hhcurveto
          75 57 -69 -105 -104 -58 -69 -81 -41 -37 20 25 -29 hvcurveto
          -42 -67 rlineto
          -40 45 57 -21 57 hhcurveto
          endchar
        </CharString>
        <CharString name="uni0259">
          -63 241 -12 rmoveto
          120 98 98 159 161 -94 95 -125 -66 -58 -18 -32 -48 hvcurveto
          35 -68 rlineto
          24 37 38 15 46 hhcurveto
          80 49 -56 -89 7 hvcurveto
          -318 hlineto
          -3 -12 -2 -21 -20 vvcurveto
          -143 76 -93 128 vhcurveto
          -2 79 rmoveto
          -72 -42 49 91 hvcurveto
          236 hlineto
          -91 -9 -46 -49 -67 hhcurveto
          endchar
        </CharString>
        <CharString name="uni025B">
          -119 255 -12 rmoveto
          65 49 14 40 57 hvcurveto
          -41 66 rlineto
          -29 -42 -37 -12 -40 hhcurveto
          -69 -48 30 49 48 39 24 71 hvcurveto
          74 70 -59 hlineto
          -68 -32 26 40 44 38 24 50 41 32 -13 -22 35 hvcurveto
          39 67 rlineto
          30 -44 -49 17 -58 hhcurveto
          -98 -86 -42 -92 -44 28 -44 54 -18 hvcurveto
          -4 vlineto
          -58 -15 -49 -37 -69 vvcurveto
          -93 95 -55 111 vhcurveto
          endchar
        </CharString>
        <CharString name="uni026B">
          -8 callsubr
        </CharString>
        <CharString name="uni0283">
          -309 33 -36 callsubr
          endchar
        </CharString>
        <CharString name="uni028E">
          -82 12 hmoveto
          98 hlineto
          79 253 13 44 13 49 13 45 rlinecurve
          4 hlineto
          15 -46 15 -49 15 -43 91 -253 rcurveline
          103 hlineto
          -194 486 20 60 rlineto
          54 18 32 39 53 hhcurveto
          12 15 -4 -3 9 hvcurveto
          19 79 rlineto
          6 -17 -19 4 -25 hhcurveto
          -103 -51 -70 -105 -38 hvcurveto
          -190 -546 rlineto
          endchar
        </CharString>
        <CharString name="uni0292">
          -130 203 -211 rmoveto
          112 101 80 142 114 -75 81 -124 -7 hvcurveto
          177 236 rlineto
          54 -352 -81 230 vlineto
          -180 -241 37 -53 rlineto
          10 23 11 5 28 hhcurveto
          78 45 -45 -76 -83 -53 -53 -68 -64 -43 28 31 -34 hvcurveto
          -48 -64 rlineto
          -40 43 60 -38 96 hhcurveto
          endchar
        </CharString>
        <CharString name="uni0294">
          -139 141 hmoveto
          101 280 hlineto
          96 68 69 64 113 vvcurveto
          130 -94 66 -115 -95 -63 -42 -46 -43 vhcurveto
          52 -65 rlineto
          37 33 44 33 63 hhcurveto
          73 43 -44 -72 -79 -48 -52 -116 -69 hvcurveto
          -322 vlineto
          endchar
        </CharString>
        <CharString name="uni0295">
          -104 199 hmoveto
          101 322 hlineto
          -115 69 -49 52 79 vvcurveto
          72 47 44 79 59 41 -33 -37 30 vhcurveto
          52 65 rlineto
          46 -41 -59 42 -91 hhcurveto
          -120 -99 -66 -130 -113 69 -64 96 -68 hvcurveto
          -280 vlineto
          endchar
        </CharString>
        <CharString name="uni02A4">
          335 endchar
        </CharString>
        <CharString name="uni02A6">
          -70 endchar
        </CharString>
        <CharString name="uni02A7">
          -70 382 -36 callsubr
          -141 199 -82 callsubr
          endchar
        </CharString>
        <CharString name="uni02B9">
          -301 endchar
        </CharString>
        <CharString name="uni02C8">
          -441 26 535 rmoveto
          72 hlineto
          6 198 rlineto
          -84 hlineto
          6 -198 rlineto
          endchar
        </CharString>
        <CharString name="uni02D0">
          -301 180 236 rmoveto
          14 62 rlineto
          -28 hlineto
          -6 28 rlineto
          -56 hlineto
          -6 -28 rlineto
          -28 hlineto
          14 -62 -14 -62 rlineto
          28 hlineto
          6 -29 rlineto
          56 hlineto
          6 29 rlineto
          28 hlineto
          -14 62 rlineto
          endchar
        </CharString>
        <CharString name="uni0302">
          -122 -77 callgsubr
          endchar
        </CharString>
        <CharString name="uni0302.cap">
          -110 -66 callsubr
          endchar
        </CharString>
        <CharString name="uni0304">
          -137 3 callsubr
          endchar
        </CharString>
        <CharString name="uni0304.cap">
          -139 -12 callgsubr
          endchar
        </CharString>
        <CharString name="uni0306">
          571 0 callsubr
        </CharString>
        <CharString name="uni0306.cap">
          703 vmoveto
          -57 callsubr
          endchar
        </CharString>
        <CharString name="uni0307">
          581 vmoveto
          -100 callgsubr
        </CharString>
        <CharString name="uni0307.cap">
          710 vmoveto
          31 callgsubr
          endchar
        </CharString>
        <CharString name="uni0308">
          -100 -97 callsubr
          endchar
        </CharString>
        <CharString name="uni0308.cap">
          -105 -95 callgsubr
          endchar
        </CharString>
        <CharString name="uni030A">
          557 vmoveto
          -41 callgsubr
          endchar
        </CharString>
        <CharString name="uni030A.cap">
          698 vmoveto
          31 callsubr
          42 vmoveto
          46 callsubr
          45 callsubr
          hvcurveto
          endchar
        </CharString>
        <CharString name="uni030B">
          -51 9 callgsubr
        </CharString>
        <CharString name="uni030B.cap">
          -60 700 rmoveto
          37 callsubr
          168 hmoveto
          37 callsubr
          endchar
        </CharString>
        <CharString name="uni030C">
          -51 -75 callsubr
          endchar
        </CharString>
        <CharString name="uni030C.cap">
          -54 -64 callgsubr
          endchar
        </CharString>
        <CharString name="uni031E">
          -29 -251 rmoveto
          58 105 70 54 -198 -54 70 -105 hlineto
          endchar
        </CharString>
        <CharString name="uni0327">
          -91 -10 callgsubr
        </CharString>
        <CharString name="uni032E">
          -232 0 callsubr
        </CharString>
        <CharString name="uni0331">
          -137 -32 callsubr
        </CharString>
        <CharString name="uni0361">
          -427 546 rmoveto
          76 128 160 31 139 hhcurveto
          139 160 -31 -76 128 hvcurveto
          28 49 rlineto
          83 -135 -154 43 -166 hhcurveto
          -166 -154 -43 -83 -135 hvcurveto
          28 -49 rlineto
          endchar
        </CharString>
        <CharString name="uni0394.math">
          38 endchar
        </CharString>
        <CharString name="uni03A9.math">
          123 endchar
        </CharString>
        <CharString name="uni03BC.math">
          6 endchar
        </CharString>
        <CharString name="uni05B0">
          64 -71 callgsubr
          -98 vmoveto
          -26 callgsubr
        </CharString>
        <CharString name="uni05B1">
          64 -71 callgsubr
          104 hmoveto
          -86 callgsubr
          104 hmoveto
          -86 callgsubr
          -157 -98 rmoveto
          -18 -14 -18 -16 -18 14 -15 18 -48 callsubr
          17 -19 hvcurveto
          157 hmoveto
          -26 callgsubr
        </CharString>
        <CharString name="uni05B2">
          14 callgsubr
          162 20 callsubr
        </CharString>
        <CharString name="uni05B3">
          14 callgsubr
          67 hlineto
          -7 48 callsubr
          -7 100 rlineto
          67 20 callsubr
        </CharString>
        <CharString name="uni05B4">
          64 -71 callgsubr
          endchar
        </CharString>
        <CharString name="uni05B5">
          -9 callsubr
          endchar
        </CharString>
        <CharString name="uni05B6">
          -9 callsubr
          -54 -89 rmoveto
          -19 -13 -16 -16 -85 callsubr
          16 4 callsubr
          endchar
        </CharString>
        <CharString name="uni05B7">
          194 -69 38 callgsubr
          162 37 hlineto
          endchar
        </CharString>
        <CharString name="uni05B8">
          194 -69 38 callgsubr
          67 hlineto
          -7 48 callsubr
          -7 100 rlineto
          67 37 hlineto
          endchar
        </CharString>
        <CharString name="uni05B9">
          64 580 -99 callgsubr
        </CharString>
        <CharString name="uni05BA">
          64 513 -40 callsubr
          endchar
        </CharString>
        <CharString name="uni05BB">
          64 -71 callgsubr
          68 -64 -82 callgsubr
          68 -64 -82 callgsubr
          endchar
        </CharString>
        <CharString name="uni05BC">
          64 323 -99 callgsubr
        </CharString>
        <CharString name="uni05BE">
          -244 45 480 rmoveto
          231 82 -231 -82 hlineto
          endchar
        </CharString>
        <CharString name="uni05BF">
          221 573 rmoveto
          -189 -45 189 45 hlineto
          endchar
        </CharString>
        <CharString name="uni05C1">
          21 callsubr
        </CharString>
        <CharString name="uni05C2">
          21 callsubr
        </CharString>
        <CharString name="uni05C7">
          130 -69 rmoveto
          -98 -37 41 hlineto
          -13 48 callsubr
          -13 100 rlineto
          41 37 hlineto
          endchar
        </CharString>
        <CharString name="uni05D0">
          -83 callgsubr
          endchar
        </CharString>
        <CharString name="uni05D1">
          -1 callsubr
          endchar
        </CharString>
        <CharString name="uni05D2">
          -30 callsubr
          endchar
        </CharString>
        <CharString name="uni05D3">
          7 callsubr
          endchar
        </CharString>
        <CharString name="uni05D4">
          -14 callsubr
          endchar
        </CharString>
        <CharString name="uni05D5">
          -325 70 hmoveto
          30 callsubr
          endchar
        </CharString>
        <CharString name="uni05D6">
          5 callgsubr
          endchar
        </CharString>
        <CharString name="uni05D7">
          13 347 40 callgsubr
          -288 -562 107 480 154 hlineto
          59 31 -37 -73 hvcurveto
          -370 107 365 45 callgsubr
          -66 61 -104 vhcurveto
          endchar
        </CharString>
        <CharString name="uni05D8">
          -36 callgsubr
          endchar
        </CharString>
        <CharString name="uni05D9">
          14 callsubr
          endchar
        </CharString>
        <CharString name="uni05DA">
          8 callgsubr
          endchar
        </CharString>
        <CharString name="uni05DB">
          -18 callsubr
          endchar
        </CharString>
        <CharString name="uni05DC">
          8 callsubr
          endchar
        </CharString>
        <CharString name="uni05DD">
          20 355 40 callgsubr
          -290 -562 460 10 callsubr
          -183 -480 rmoveto
          398 156 vlineto
          7 callgsubr
          -298 -246 vlineto
          endchar
        </CharString>
        <CharString name="uni05DE">
          -50 callsubr
          endchar
        </CharString>
        <CharString name="uni05DF">
          -325 70 -200 rmoveto
          107 645 hlineto
          -13 callsubr
          -645 vlineto
          endchar
        </CharString>
        <CharString name="uni05E0">
          2 callgsubr
          endchar
        </CharString>
        <CharString name="uni05E1">
          -38 callsubr
          endchar
        </CharString>
        <CharString name="uni05E2">
          -11 400 40 callgsubr
          -1 -273 2 -122 -116 -56 -112 451 rcurveline
          -107 hlineto
          124 -478 -169 -33 15 -84 188 37 270 60 11 158 1 340 rlinecurve
          -106 hlineto
          endchar
        </CharString>
        <CharString name="uni05E3">
          -29 callsubr
          endchar
        </CharString>
        <CharString name="uni05E4">
          -40 callgsubr
          endchar
        </CharString>
        <CharString name="uni05E5">
          -69 473 40 callgsubr
          -101 hlineto
          -128 -313 -101 313 rlineto
          -103 hlineto
          246 -762 rlineto
          103 hlineto
          -102 317 186 445 rlineto
          endchar
        </CharString>
        <CharString name="uni05E6">
          -8 callgsubr
          endchar
        </CharString>
        <CharString name="uni05E7">
          -33 callsubr
          endchar
        </CharString>
        <CharString name="uni05E8">
          13 callgsubr
          endchar
        </CharString>
        <CharString name="uni05E9">
          91 604 408 -100 callsubr
          endchar
        </CharString>
        <CharString name="uni05EA">
          -23 callgsubr
          endchar
        </CharString>
        <CharString name="uni1E06">
          -49 callgsubr
          -19 -256 -57 callgsubr
        </CharString>
        <CharString name="uni1E07">
          -46 callsubr
          -139 -248 -57 callgsubr
        </CharString>
        <CharString name="uni1E0C">
          -65 callsubr
          119 -295 -97 callgsubr
        </CharString>
        <CharString name="uni1E0D">
          -81 callgsubr
          26 -284 -97 callgsubr
        </CharString>
        <CharString name="uni1E0E">
          -65 callsubr
          -18 -259 -57 callgsubr
        </CharString>
        <CharString name="uni1E0F">
          -81 callgsubr
          -111 -248 -57 callgsubr
        </CharString>
        <CharString name="uni1E20">
          58 218 -12 callgsubr
          135 -743 -91 callsubr
        </CharString>
        <CharString name="uni1E21">
          -52 127 3 callsubr
          118 -818 -105 callgsubr
        </CharString>
        <CharString name="uni1E24">
          -20 callgsubr
          242 -88 callgsubr
        </CharString>
        <CharString name="uni1E25">
          -76 callsubr
          213 -88 callgsubr
        </CharString>
        <CharString name="uni1E2A">
          -20 callgsubr
          242 -232 rmoveto
          2 callsubr
        </CharString>
        <CharString name="uni1E2B">
          -76 callsubr
          213 -232 rmoveto
          2 callsubr
        </CharString>
        <CharString name="uni1E32">
          -54 callsubr
          243 -88 callgsubr
        </CharString>
        <CharString name="uni1E33">
          -52 callgsubr
          201 -88 callgsubr
        </CharString>
        <CharString name="uni1E34">
          -54 callsubr
          106 -32 callsubr
        </CharString>
        <CharString name="uni1E35">
          -52 callgsubr
          64 -32 callsubr
        </CharString>
        <CharString name="uni1E62">
          -25 273 -12 -96 callsubr
          2 -200 -97 callgsubr
        </CharString>
        <CharString name="uni1E63">
          -139 210 -12 -93 callsubr
          13 -200 -97 callgsubr
        </CharString>
        <CharString name="uni1E6C">
          3 callgsubr
          51 -88 callgsubr
        </CharString>
        <CharString name="uni1E6D">
          -66 callgsubr
          -29 -200 -97 callgsubr
        </CharString>
        <CharString name="uni1E6E">
          3 callgsubr
          -86 -32 callsubr
        </CharString>
        <CharString name="uni1E6F">
          -66 callgsubr
          -166 -164 -57 callgsubr
        </CharString>
        <CharString name="uni1E7E">
          -18 callgsubr
          59 -88 callgsubr
        </CharString>
        <CharString name="uni1E7F">
          -2 callgsubr
          58 -88 callgsubr
        </CharString>
        <CharString name="uni1E92">
          -28 callgsubr
          240 -88 callgsubr
        </CharString>
        <CharString name="uni1E93">
          -31 callgsubr
          199 -88 callgsubr
        </CharString>
        <CharString name="uni1E94">
          -28 callgsubr
          103 -32 callsubr
        </CharString>
        <CharString name="uni1E95">
          -31 callgsubr
          62 -32 callsubr
        </CharString>
        <CharString name="uni1E96">
          -76 callsubr
          76 -32 callsubr
        </CharString>
        <CharString name="uni1EA0">
          -13 552 hmoveto
          -93 callgsubr
          108 hlineto
          -367 -94 callsubr
          89 -359 26 callgsubr
        </CharString>
        <CharString name="uni1EA1">
          -54 193 -12 -107 callgsubr
          27 -280 -97 callgsubr
        </CharString>
        <CharString name="uni1EB8">
          -32 86 hmoveto
          -81 callsubr
          204 -88 callgsubr
        </CharString>
        <CharString name="uni1EB9">
          -63 465 270 -103 callgsubr
          120 -379 26 callgsubr
        </CharString>
        <CharString name="uni1ECC">
          105 335 -12 rmoveto
          -106 callgsubr
          -289 vmoveto
          -100 callgsubr
        </CharString>
        <CharString name="uni1ECD">
          49 callsubr
          -12 rmoveto
          -103 callsubr
          -283 vmoveto
          -100 callgsubr
        </CharString>
        <CharString name="uni200E">
          34 callgsubr
          -191 -36 191 hlineto
          -63 -66 25 -25 rlineto
          endchar
        </CharString>
        <CharString name="uni200F">
          44 callgsubr
          192 36 -193 39 callgsubr
          endchar
        </CharString>
        <CharString name="uni2010">
          -6 callgsubr
        </CharString>
        <CharString name="uni2010.lat">
          -6 callgsubr
        </CharString>
        <CharString name="uni202D">
          -31 767 rmoveto
          104 108 -104 109 -26 -27 61 -63 rlineto
          -160 -36 162 hlineto
          -63 -66 26 -25 rlineto
          97 hmoveto
          36 callgsubr
          82 -82 -82 -83 25 -25 rlineto
          endchar
        </CharString>
        <CharString name="uni202E">
          -66 805 rmoveto
          25 26 -80 83 80 81 -25 26 -105 -107 105 -109 rlineto
          97 hmoveto
          28 26 -63 64 rlineto
          161 34 -161 hlineto
          63 66 -28 26 -102 -107 102 -109 rlineto
          endchar
        </CharString>
        <CharString name="uni210A">
          1 260 -210 rmoveto
          144 82 72 122 hvcurveto
          505 -83 vlineto
          -8 -45 rlineto
          -3 hlineto
          38 -40 -40 19 -53 hhcurveto
          -109 -102 -97 -152 -150 79 -95 122 54 49 27 34 35 hvcurveto
          -2 -83 rlineto
          -70 -3 -38 -45 -84 hhcurveto
          -45 -50 13 30 -47 hvcurveto
          -36 -69 rlineto
          -35 53 66 -19 59 hhcurveto
          13 300 rmoveto
          -77 -45 63 100 99 56 65 70 36 35 -12 -33 37 hvcurveto
          -221 vlineto
          -42 -37 -34 -19 -41 hhcurveto
          endchar
        </CharString>
        <CharString name="uni2215">
          -51 callgsubr
        </CharString>
        <CharString name="uni2215.lat">
          -51 callgsubr
        </CharString>
        <CharString name="uni2219">
          -55 252 255 -73 callsubr
        </CharString>
        <CharString name="uniFB2A">
          -59 callgsubr
          endchar
        </CharString>
        <CharString name="uniFB2B">
          -60 callsubr
          endchar
        </CharString>
        <CharString name="uniFB2C">
          -59 callgsubr
          -262 -141 rmoveto
          24 callsubr
          -61 callsubr
          vhcurveto
          endchar
        </CharString>
        <CharString name="uniFB2D">
          -60 callsubr
          -262 -141 rmoveto
          24 callsubr
          -61 callsubr
          vhcurveto
          endchar
        </CharString>
        <CharString name="uniFB2E">
          -37 callsubr
          162 37 hlineto
          endchar
        </CharString>
        <CharString name="uniFB2F">
          -37 callsubr
          67 hlineto
          -7 48 callsubr
          -7 100 rlineto
          67 37 hlineto
          endchar
        </CharString>
        <CharString name="uniFB30">
          -83 callgsubr
          -288 140 -99 callgsubr
        </CharString>
        <CharString name="uniFB31">
          -1 callsubr
          -223 215 -1 callgsubr
        </CharString>
        <CharString name="uniFB32">
          -30 callsubr
          -250 263 rmoveto
          19 12 16 18 17 -12 16 -19 -61 callsubr
          -18 13 -16 19 hvcurveto
          endchar
        </CharString>
        <CharString name="uniFB33">
          7 callsubr
          -125 -71 callsubr
        </CharString>
        <CharString name="uniFB34">
          -14 callsubr
          225 -71 callsubr
        </CharString>
        <CharString name="uniFB35">
          -325 70 hmoveto
          30 callsubr
          -75 -71 callsubr
        </CharString>
        <CharString name="uniFB36">
          5 callgsubr
          -75 -71 callsubr
        </CharString>
        <CharString name="uniFB38">
          -36 callgsubr
          186 350 -99 callgsubr
        </CharString>
        <CharString name="uniFB39">
          14 callsubr
          -71 214 -99 callgsubr
        </CharString>
        <CharString name="uniFB3A">
          8 callgsubr
          -163 530 -99 callgsubr
        </CharString>
        <CharString name="uniFB3B">
          -18 callsubr
          134 -71 callsubr
        </CharString>
        <CharString name="uniFB3C">
          8 callsubr
          -6 -232 -99 callgsubr
        </CharString>
        <CharString name="uniFB3E">
          -50 callsubr
          -206 3 -1 callgsubr
        </CharString>
        <CharString name="uniFB40">
          2 callgsubr
          53 -71 callsubr
        </CharString>
        <CharString name="uniFB41">
          -38 callsubr
          88 248 -99 callgsubr
        </CharString>
        <CharString name="uniFB43">
          -29 callsubr
          -232 vmoveto
          -98 callgsubr
        </CharString>
        <CharString name="uniFB44">
          -40 callgsubr
          225 325 -99 callgsubr
        </CharString>
        <CharString name="uniFB46">
          -8 callgsubr
          -317 -363 -1 callgsubr
        </CharString>
        <CharString name="uniFB47">
          -33 callsubr
          229 540 -99 callgsubr
        </CharString>
        <CharString name="uniFB48">
          13 callgsubr
          -153 -71 callsubr
        </CharString>
        <CharString name="uniFB49">
          91 604 408 -100 callsubr
          -262 -141 rmoveto
          24 callsubr
          -61 callsubr
          vhcurveto
          endchar
        </CharString>
        <CharString name="uniFB4A">
          -23 callgsubr
          305 346 -99 callgsubr
        </CharString>
        <CharString name="uniFB4B">
          -325 100 694 rmoveto
          -98 callsubr
          -30 -694 rmoveto
          30 callsubr
          endchar
        </CharString>
        <CharString name="upsilonlatin">
          49 callsubr
          -12 rmoveto
          145 82 108 111 93 -42 67 -40 39 hvcurveto
          2 93 81 -193 -65 vlineto
          48 -46 32 -59 -90 vvcurveto
          -86 -42 -72 -83 -83 -42 72 86 90 32 59 49 46 vhcurveto
          65 -194 -81 93 -2 vlineto
          -40 -39 -42 -67 -93 vvcurveto
          -111 83 -108 144 vhcurveto
          endchar
        </CharString>
        <CharString name="v">
          -2 callgsubr
          endchar
        </CharString>
        <CharString name="w">
          170 156 hmoveto
          117 hlineto
          61 242 12 46 9 46 10 51 rlinecurve
          4 hlineto
          11 -51 9 -45 11 -46 63 -243 rcurveline
          121 hlineto
          127 489 rlineto
          -95 hlineto
          -64 -266 -10 -47 -8 -45 -10 -47 27 callsubr
          -11 47 -10 45 -12 47 -70 266 rcurveline
          -94 hlineto
          -69 -266 -12 -46 -10 -46 -10 -47 27 callsubr
          -9 47 -8 45 -10 47 -65 266 rcurveline
          -102 hlineto
          132 -489 rlineto
          endchar
        </CharString>
        <CharString name="x">
          -99 14 hmoveto
          105 hlineto
          58 104 46 87 36 callsubr
          18 -28 17 -30 16 -29 65 -104 rcurveline
          109 hlineto
          -157 244 146 245 rlineto
          -105 hlineto
          -52 -99 -13 -27 -14 -28 -14 -27 27 callsubr
          -46 82 -59 99 rlineto
          -109 hlineto
          146 -234 -157 -255 rlineto
          endchar
        </CharString>
        <CharString name="y">
          -82 99 -205 -78 callsubr
        </CharString>
        <CharString name="yacute">
          -82 245 -65 callgsubr
          -146 -778 -78 callsubr
        </CharString>
        <CharString name="ydieresis">
          -82 152 -97 callsubr
          -253 -787 -78 callsubr
        </CharString>
        <CharString name="yen">
          -44 callsubr
        </CharString>
        <CharString name="yen.heb">
          -25 endchar
        </CharString>
        <CharString name="yen.lat">
          -44 callsubr
        </CharString>
        <CharString name="z">
          -31 callgsubr
          endchar
        </CharString>
        <CharString name="zcaron">
          -130 187 -75 callsubr
          -154 -575 rmoveto
          -42 callsubr
          endchar
        </CharString>
        <CharString name="zero">
          -70 callgsubr
        </CharString>
        <CharString name="zero.heb">
          -70 callgsubr
        </CharString>
        <CharString name="zero.lat">
          -70 callgsubr
        </CharString>
        <CharString name="zero.pnumheb">
          -43 endchar
        </CharString>
        <CharString name="zero.pnumlat">
          -63 endchar
        </CharString>
        <CharString name="zero.slash">
          -65 endchar
        </CharString>
        <CharString name="zero.slashpnum">
          -65 endchar
        </CharString>
      <CharString index="0">
        rmoveto
        59 52 30 38 45 hvcurveto
        3 hlineto
        8 -56 rlineto
        83 294 hlineto
        130 -56 77 -121 -78 -69 -32 -32 -50 vhcurveto
        38 -68 rlineto
        26 41 48 24 52 hhcurveto
        72 21 -51 -57 1 hvcurveto
        -204 -22 -89 -54 -105 vvcurveto
        -87 60 -55 84 vhcurveto
        31 80 rmoveto
        -44 -33 21 48 55 49 37 146 18 hvcurveto
        -121 vlineto
        -37 -41 -34 -21 -43 hhcurveto
        return
      </CharString>
      <CharString index="1">
        -30 callgsubr
        -75 callgsubr
        -211 117 -131 168 hvcurveto
        89 vmoveto
        -109 -71 99 154 -61 callgsubr
        -154 -71 -99 -109 hvcurveto
        return
      </CharString>
      <CharString index="2">
        rmoveto
        156 99 77 94 83 -60 36 -115 hvcurveto
        -91 hlineto
        -62 -20 19 29 24 11 14 16 14 hvcurveto
        -10 22 25 -5 22 hhcurveto
        102 81 61 107 37 -14 33 -19 20 hvcurveto
        94 76 -173 hlineto
        7 -19 -25 5 -27 hhcurveto
        -101 -88 -65 -110 -58 31 -47 33 -25 hvcurveto
        -4 vlineto
        -27 -19 -27 -33 -39 vvcurveto
        -39 19 -26 25 -16 vhcurveto
        -4 vlineto
        -45 -28 -26 -38 -41 vvcurveto
        -85 85 -44 118 vhcurveto
        3 440 rmoveto
        -51 -42 40 66 66 41 38 52 52 41 -38 -66 -66 -42 -40 -51 hvcurveto
        12 -373 rmoveto
        -82 -50 29 48 25 13 25 30 22 hvcurveto
        -5 20 22 -2 23 hhcurveto
        75 hlineto
        59 32 -13 -41 -46 -57 -42 -85 hvcurveto
        endchar
      </CharString>
      <CharString index="3">
        -103 callgsubr
        endchar
      </CharString>
      <CharString index="4">
        rmoveto
        -80 callsubr
        18 callsubr
        vhcurveto
        -33 callgsubr
        -77 -69 47 104 -10 hvcurveto
        323 -12 callsubr
        -325 18 rmoveto
        94 14 58 40 56 4 callgsubr
        -237 hlineto
        return
      </CharString>
      <CharString index="5">
        rmoveto
        -105 callsubr
      </CharString>
      <CharString index="6">
        -59 441 134 rmoveto
        -43 -31 -34 -23 -46 hhcurveto
        -74 -49 60 101 -18 hvcurveto
        202 56 -208 hlineto
        -1 11 0 12 12 vvcurveto
        9 0 9 1 9 vhcurveto
        248 56 -243 hlineto
        104 17 50 62 79 hhcurveto
        40 31 -22 -32 27 hvcurveto
        58 56 rlineto
        46 -37 -56 32 -60 hhcurveto
        -131 -95 -91 -156 -25 hvcurveto
        -64 -4 rlineto
        -51 58 vlineto
        -1 -10 0 -10 -10 vvcurveto
        -11 0 -11 1 -11 vhcurveto
        -58 -4 rlineto
        -51 64 vlineto
        -154 25 92 -87 121 hhcurveto
        73 57 34 59 45 hvcurveto
        -58 53 rlineto
        endchar
      </CharString>
      <CharString index="7">
        -102 callsubr
        endchar
      </CharString>
      <CharString index="8">
        rmoveto
        -98 callgsubr
      </CharString>
      <CharString index="9">
        -98 callsubr
        endchar
      </CharString>
      <CharString index="10">
        rmoveto
        -100 callgsubr
      </CharString>
      <CharString index="11">
        -59 238 -12 rmoveto
        120 98 68 115 86 -59 55 -76 19 hvcurveto
        4 vlineto
        69 27 44 48 74 vvcurveto
        105 -82 60 -117 -76 -60 -33 -47 -52 vhcurveto
        53 -63 rlineto
        37 38 42 25 51 hhcurveto
        63 38 -35 -57 -62 -43 -47 -129 hvcurveto
        -75 vlineto
        148 46 -46 -70 -65 -51 -40 -73 -68 -49 33 39 -39 hvcurveto
        -49 -65 rlineto
        -49 44 67 -41 102 hhcurveto
        endchar
      </CharString>
      <CharString index="12">
        711 rmoveto
        -90 callsubr
        210 hmoveto
        -90 callsubr
        return
      </CharString>
      <CharString index="13">
        -61 callsubr
        -85 callsubr
        return
      </CharString>
      <CharString index="14">
        -217 655 rlineto
        -118 40 callsubr
        -655 rlineto
        104 hlineto
        56 187 rlineto
        228 hlineto
        56 -187 rlineto
        return
      </CharString>
      <CharString index="15">
        110 45 75 78 5 hvcurveto
        -61 10 rlineto
        -49 -7 -30 -48 -62 hhcurveto
        -62 -30 48 49 -7 hvcurveto
        -61 -10 rlineto
        -78 5 46 -75 109 hhcurveto
        return
      </CharString>
      <CharString index="16">
        -59 254 -12 rmoveto
        127 84 75 97 85 -52 46 -58 34 hvcurveto
        4 vlineto
        40 29 46 55 65 vvcurveto
        101 -71 70 -113 -107 -80 -66 -101 -67 40 -47 48 -34 vhcurveto
        -4 vlineto
        -60 -32 -57 -54 -81 vvcurveto
        -102 91 -73 122 vhcurveto
        43 366 rmoveto
        -73 29 -63 30 69 vvcurveto
        58 41 36 53 64 37 -45 -59 -43 -21 -39 -38 -36 vhcurveto
        -41 -293 rmoveto
        -71 -55 46 66 53 33 44 45 31 hvcurveto
        88 -36 73 -27 -75 vvcurveto
        -62 -46 -40 -67 vhcurveto
        endchar
      </CharString>
      <CharString index="17">
        38 30 30 41 42 -39 callgsubr
        -42 -41 30 -30 38 hvcurveto
        return
      </CharString>
      <CharString index="18">
        -213 -100 callsubr
        return
      </CharString>
      <CharString index="19">
        -212 -97 callgsubr
      </CharString>
      <CharString index="20">
        -59 233 649 rmoveto
        -106 -89 -82 -125 -132 74 -65 110 49 56 29 48 38 hvcurveto
        -187 -4 -70 -64 -84 hhcurveto
        -39 -39 20 29 -25 hvcurveto
        -55 -62 rlineto
        -39 37 53 -31 73 hhcurveto
        129 118 101 251 210 -101 99 -125 hvcurveto
        7 -330 rmoveto
        -70 -38 45 78 81 45 48 57 70 47 -56 -117 11 hvcurveto
        -57 -38 -46 -22 -38 hhcurveto
        endchar
      </CharString>
      <CharString index="21">
        -61 callsubr
        -72 callgsubr
        16 -19 hvcurveto
        return
      </CharString>
      <CharString index="22">
        576 rmoveto
        71 33 56 84 3 hvcurveto
        -66 4 rlineto
        -44 -3 -13 -28 -26 -43 -29 78 -68 hhcurveto
        -72 -33 -55 -85 -3 hvcurveto
        66 -4 rlineto
        45 3 13 27 27 42 29 -78 69 hhcurveto
        return
      </CharString>
      <CharString index="23">
        36 26 25 36 35 -26 25 -36 return
      </CharString>
      <CharString index="24">
        21 553 hmoveto
        -140 208 116 354 rlineto
        -102 hlineto
        -51 -174 -25 -87 -84 126 -85 135 rlineto
        -108 hlineto
        92 -147 -29 -71 -110 -344 rlineto
        102 hlineto
        99 319 210 -319 rlineto
        115 hlineto
        return
      </CharString>
      <CharString index="25">
        rmoveto
        -86 callgsubr
        return
      </CharString>
      <CharString index="26">
        -5 246 -12 rmoveto
        55 51 30 37 37 hvcurveto
        3 hlineto
        8 -55 rlineto
        83 709 -101 -182 hlineto
        4 -81 rlineto
        34 -40 -36 21 -56 hhcurveto
        -109 -100 -67 callsubr
        return
      </CharString>
      <CharString index="27">
        -12 rmoveto
        -56 callsubr
        -3 callsubr
        return
      </CharString>
      <CharString index="28">
        86 -295 213 241 86 -241 184 285 86 -387 -655 return
      </CharString>
      <CharString index="29">
        61 610 71 rmoveto
        -35 9 -41 20 -44 28 52 68 36 78 25 84 rrcurveto
        -93 hlineto
        -19 -71 -30 -61 -38 -50 -59 46 -56 59 -42 59 rrcurveto
        72 51 73 55 86 vvcurveto
        80 -52 55 -86 -96 -63 -71 -89 -46 16 -51 26 -51 vhcurveto
        -66 -45 -60 -54 -89 vvcurveto
        -104 80 -79 125 79 64 28 45 51 vhcurveto
        54 -36 53 -25 48 -12 26 83 rcurveline
        -410 437 rmoveto
        52 30 37 44 41 16 -30 -36 -54 -47 -36 -56 -36 vhcurveto
        -18 36 -10 35 32 vvcurveto
        -73 -331 rmoveto
        45 30 35 41 33 vhcurveto
        44 -64 58 -62 61 -52 rrcurveto
        -27 -35 -39 -18 -40 hhcurveto
        -68 -52 44 66 hvcurveto
        endchar
      </CharString>
      <CharString index="30">
        566 rmoveto
        120 107 rlineto
        -68 callsubr
        rlineto
        return
      </CharString>
      <CharString index="31">
        181 373 -10 rmoveto
        175 150 129 205 204 -150 126 -175 -175 -150 -126 -204 -205 150 -129 175 hvcurveto
        47 vmoveto
        -150 -122 115 172 171 122 112 150 150 122 -112 -171 -172 -122 -115 -150 hvcurveto
        9 89 rmoveto
        58 39 24 31 37 hvcurveto
        -35 50 rlineto
        -23 -28 -28 -18 -40 hhcurveto
        -67 -43 51 82 73 44 53 70 33 23 -14 -25 26 hvcurveto
        40 46 rlineto
        32 -32 -37 25 -58 hhcurveto
        -98 -89 -73 -117 -123 81 -74 104 hvcurveto
        endchar
      </CharString>
      <CharString index="32">
        211 -117 126 -168 -37 callgsubr
        return
      </CharString>
      <CharString index="33">
        50 callgsubr
        hlineto
        -31 callsubr
        -295 101 41 callgsubr
        124 -46 69 -104 -67 return
      </CharString>
      <CharString index="34">
        -80 callgsubr
        endchar
      </CharString>
      <CharString index="35">
        -18 13 -15 19 -48 callsubr
        return
      </CharString>
      <CharString index="36">
        -73 -82 callgsubr
        return
      </CharString>
      <CharString index="37">
        -59 253 -12 rmoveto
        130 81 119 214 214 -81 114 -130 -130 -81 -113 -215 -214 81 -119 130 hvcurveto
        80 vmoveto
        -67 -47 70 183 183 47 65 67 67 47 -65 -183 -183 -47 -70 -67 hvcurveto
        endchar
      </CharString>
      <CharString index="38">
        136 152 rlineto
        74 vlineto
        -136 152 -41 -34 116 -155 -116 -156 41 -33 rlineto
        return
      </CharString>
      <CharString index="39">
        -59 479 248 rmoveto
        -83 389 -117 hlineto
        -261 -400 rlineto
        -68 283 -169 95 169 83 79 vlineto
        -359 hmoveto
        130 195 18 33 18 30 16 32 rlinecurve
        4 hlineto
        -2 -35 -3 -57 -36 vvcurveto
        -162 -181 vlineto
        endchar
      </CharString>
      <CharString index="40">
        rmoveto
        274 68 -274 -68 hlineto
        return
      </CharString>
      <CharString index="41">
        -214 241 -12 -82 callsubr
        return
      </CharString>
      <CharString index="42">
        573 rmoveto
        164 154 -24 callgsubr
        rlineto
        return
      </CharString>
      <CharString index="43">
        705 41 callsubr
        100 112 -44 30 -108 -90 29 callgsubr
        -108 90 -44 -30 100 -112 rlineto
        return
      </CharString>
      <CharString index="44">
        63 42 46 83 4 hvcurveto
        -67 5 rlineto
        -41 -5 -16 -20 -24 -43 -28 67 -74 hhcurveto
        -63 -42 -45 -84 -4 hvcurveto
        67 -5 rlineto
        41 4 17 20 24 return
      </CharString>
      <CharString index="45">
        rmoveto
        -77 -44 62 111 106 56 66 69 36 35 -12 -33 37 hvcurveto
        -240 vlineto
        -41 -36 -35 -19 -41 hhcurveto
        return
      </CharString>
      <CharString index="46">
        154 71 94 109 109 71 -94 -154 return
      </CharString>
      <CharString index="47">
        -59 191 86 rmoveto
        4 vlineto
        38 40 19 40 63 vvcurveto
        17 -2 16 -2 15 vhcurveto
        141 66 -156 hlineto
        -10 37 -10 35 36 vvcurveto
        68 38 43 66 41 29 -20 -30 25 vhcurveto
        57 56 rlineto
        46 -38 -50 31 -72 hhcurveto
        -115 -79 -73 -117 -37 12 -37 12 -38 hvcurveto
        -15 hlineto
        -67 -4 rlineto
        -62 100 vlineto
        3 -16 2 -15 -16 vvcurveto
        -74 -40 -64 -66 -34 vhcurveto
        -62 414 86 -275 vlineto
        endchar
      </CharString>
      <CharString index="48">
        91 552 621 -40 callsubr
        52 -89 callgsubr
        return
      </CharString>
      <CharString index="49">
        -59 464 127 rmoveto
        -43 64 -25 -21 -32 -19 -38 -3 rlinecurve
        323 vlineto
        30 -3 26 -13 25 -22 48 63 rcurveline
        -31 30 -42 24 -56 4 rrcurveto
        100 -60 -103 vlineto
        -116 -18 -89 -85 -139 vvcurveto
        -142 83 -86 122 -15 vhcurveto
        -101 60 100 vlineto
        50 5 49 22 39 35 rrcurveto
        -304 182 rmoveto
        79 39 58 67 18 vhcurveto
        -311 vlineto
        -67 18 -39 58 80 vvcurveto
        endchar
      </CharString>
      <CharString index="50">
        -67 callgsubr
        endchar
      </CharString>
      <CharString index="51">
        692 rmoveto
        161 116 -17 callsubr
        rlineto
        return
      </CharString>
      <CharString index="52">
        -250 230 -152 rmoveto
        50 56 -24 hlineto
        -50 -14 23 62 hvcurveto
        59 5 51 66 vvcurveto
        67 -18 32 -46 12 vhcurveto
        4 vlineto
        46 12 18 31 68 66 -5 52 58 vvcurveto
        62 14 23 50 vhcurveto
        24 56 -50 hlineto
        -82 -38 -31 -105 hvcurveto
        -72 9 -48 -67 vvcurveto
        -37 -19 -38 -67 -1 vhcurveto
        -62 vlineto
        67 -1 19 -38 -38 -66 -9 -48 -72 vvcurveto
        -105 38 -31 82 vhcurveto
        endchar
      </CharString>
      <CharString index="53">
        -216 134 381 rmoveto
        40 33 20 24 26 hvcurveto
        4 hlineto
        8 -36 rlineto
        59 194 hlineto
        89 -39 49 -81 -52 -49 -21 -22 -36 vhcurveto
        27 -50 rlineto
        17 29 36 16 33 hhcurveto
        43 14 -26 -39 1 hvcurveto
        -136 -13 -59 -36 -70 vvcurveto
        -56 39 -40 60 vhcurveto
        24 58 rmoveto
        -32 -19 14 30 33 31 25 92 10 hvcurveto
        -76 vlineto
        -24 -25 -23 -12 -24 hhcurveto
        endchar
      </CharString>
      <CharString index="54">
        -59 446 171 rmoveto
        208 -275 -31 131 vvcurveto
        54 36 33 57 51 30 -20 -35 37 vhcurveto
        53 59 -37 39 -43 31 -64 7 rlinecurve
        100 -71 -101 vlineto
        -89 -15 -58 -65 -92 -190 275 25 -145 vvcurveto
        -57 -34 -36 -69 -57 -49 27 37 -45 vhcurveto
        -46 -69 44 -41 66 -29 62 -7 rlinecurve
        -99 71 102 vlineto
        97 16 58 68 95 vvcurveto
        endchar
      </CharString>
      <CharString index="55">
        -55 77 hmoveto
        99 126 hlineto
        83 96 133 -222 rlineto
        110 hlineto
        -185 291 166 198 rlineto
        -111 hlineto
        -193 -239 rlineto
        -3 459 -99 -709 hlineto
        return
      </CharString>
      <CharString index="56">
        -476 -168 -73 callgsubr
      </CharString>
      <CharString index="57">
        -42 67 rlineto
        -25 -29 -37 -20 -41 hhcurveto
        -82 -57 69 104 104 59 70 83 34 27 -15 -24 27 hvcurveto
        50 66 rlineto
        31 -35 -45 25 -63 hhcurveto
        -128 -113 -94 -163 return
      </CharString>
      <CharString index="58">
        28 86 hmoveto
        219 hlineto
        145 105 62 130 89 -54 51 -75 16 hvcurveto
        4 vlineto
        59 20 34 59 63 vvcurveto
        118 -96 43 -134 vhcurveto
        -203 19 callsubr
        102 381 rmoveto
        194 92 vlineto
        92 47 -26 -69 -61 -42 -38 -100 hvcurveto
        -89 hlineto
        -301 vmoveto
        224 105 vlineto
        105 57 -33 -74 -80 -59 -37 -103 hvcurveto
        -105 hlineto
        return
      </CharString>
      <CharString index="59">
        45 47 27 66 40 hvcurveto
        -55 41 rlineto
        -41 -22 -24 -19 -29 -56 -40 82 -80 hhcurveto
        -45 -47 -27 -67 -40 hvcurveto
        55 -40 rlineto
        41 22 25 19 28 56 40 -82 80 hhcurveto
        return
      </CharString>
      <CharString index="60">
        -129 232 -4 callgsubr
        -12 -551 rmoveto
        74 59 36 49 44 hvcurveto
        -57 52 rlineto
        -33 -30 -36 -21 -42 hhcurveto
        -57 -31 37 50 97 155 57 -21 150 hvcurveto
        -89 hlineto
        15 -133 -158 -49 -129 vvcurveto
        -104 71 -59 103 vhcurveto
        endchar
      </CharString>
      <CharString index="61">
        27 callgsubr
        164 46 callgsubr
        -8 6 162 -6 162 148 -8 -39 callsubr
        8 -6 -162 6 -162 -148 8 33 callgsubr
        6 -6 -164 rlineto
        endchar
      </CharString>
      <CharString index="62">
        -129 158 208 rmoveto
        89 hlineto
        -15 134 158 48 129 vvcurveto
        104 -71 59 -103 -74 -59 -36 -49 -44 vhcurveto
        57 -52 rlineto
        33 30 36 21 42 hhcurveto
        57 31 -37 -50 -97 -155 -57 21 -150 hvcurveto
        46 -220 -73 callsubr
      </CharString>
      <CharString index="63">
        -226 188 381 rmoveto
        43 40 15 21 32 hvcurveto
        -27 46 rlineto
        -15 -23 -27 -9 -29 hhcurveto
        -55 -38 33 61 -5 hvcurveto
        211 hlineto
        3 15 1 7 15 vvcurveto
        69 -35 82 -100 -82 -70 -66 -104 -108 71 -62 90 vhcurveto
        -90 198 rmoveto
        54 7 31 30 44 hhcurveto
        52 18 -43 -41 hvcurveto
        -152 hlineto
        endchar
      </CharString>
      <CharString index="64">
        -59 172 hmoveto
        103 hlineto
        11 249 28 138 150 188 rrcurveto
        62 -420 -86 41 callgsubr
        -124 -172 -45 30 callgsubr
      </CharString>
      <CharString index="65">
        458 86 -332 hlineto
        329 508 rlineto
        61 -425 -86 299 vlineto
        -329 -508 rlineto
        -61 vlineto
        return
      </CharString>
      <CharString index="66">
        73 43 43 57 57 -43 43 -73 -73 -43 -43 -57 -57 43 -43 73 hvcurveto
        42 vmoveto
        -30 -23 23 35 35 23 23 30 30 23 -23 -35 -35 -23 -23 -30 hvcurveto
        return
      </CharString>
      <CharString index="67">
        -17 66 hmoveto
        203 hlineto
        134 100 79 174 hvcurveto
        58 vlineto
        159 -79 92 -133 vhcurveto
        -191 hlineto
        -39 -172 -20 -107 33 -73 131 -8 rlinecurve
        19 69 -68 14 -14 32 14 64 rlinecurve
        22 99 rlineto
        90 hlineto
        87 41 -62 -103 hvcurveto
        -67 vlineto
        -117 -62 -49 -87 vhcurveto
        -181 -82 hlineto
        return
      </CharString>
      <CharString index="68">
        -30 30 -38 -38 -30 -30 return
      </CharString>
      <CharString index="69">
        703 rmoveto
        -57 callsubr
        return
      </CharString>
      <CharString index="70">
        -168 -117 -126 -211 return
      </CharString>
      <CharString index="71">
        5 112 -10 rmoveto
        252 11 180 97 -9 244 -1 28 rcurveline
        -5 130 -83 62 -114 7 -59 3 rcurveline
        -8 -84 50 -3 rlineto
        79 -5 36 -54 -69 vvcurveto
        -28 vlineto
        5 -158 -88 -70 -141 -14 -54 475 rcurveline
        -107 hlineto
        67 -572 rlineto
        return
      </CharString>
      <CharString index="72">
        -121 -52 callsubr
        167 hmoveto
        15 callgsubr
      </CharString>
      <CharString index="73">
        -121 -51 callsubr
        167 hmoveto
        16 callsubr
      </CharString>
      <CharString index="74">
        -35 64 rlineto
        -23 -36 -37 -14 -44 hhcurveto
        return
      </CharString>
      <CharString index="75">
        -59 76 hmoveto
        373 83 -128 554 6 callgsubr
        -440 -144 -83 vlineto
        endchar
      </CharString>
      <CharString index="76">
        -130 33 hmoveto
        -42 callsubr
        return
      </CharString>
      <CharString index="77">
        168 117 131 211 return
      </CharString>
      <CharString index="78">
        rmoveto
        57 57 21 40 45 hvcurveto
        -50 callgsubr
        -162 101 -94 132 hvcurveto
        endchar
      </CharString>
      <CharString index="79">
        -25 42 hmoveto
        -42 callgsubr
        return
      </CharString>
      <CharString index="80" raw="1">
        9c8f0a0b   
      </CharString>
      <CharString index="81">
        -19 -13 -18 -16 -72 callgsubr
        17 -19 hvcurveto
        endchar
      </CharString>
      <CharString index="82">
        rmoveto
        -102 callsubr
        return
      </CharString>
      <CharString index="83">
        -70 67 -145 -171 51 -50 return
      </CharString>
      <CharString index="84">
        53 30 -16 rmoveto
        135 13 59 52 134 vvcurveto
        297 137 vlineto
        7 callgsubr
        -380 107 375 vlineto
        -11 callgsubr
        -270 -391 hlineto
        -71 -18 -33 -80 -8 vhcurveto
        10 -75 rlineto
        return
      </CharString>
      <CharString index="85">
        -46 -33 47 101 101 33 45 46 46 33 -45 -101 -101 -33 -47 -46 hvcurveto
        return
      </CharString>
      <CharString index="86">
        94 551 rmoveto
        -9 callgsubr
        17 19 -4 -8 18 vhcurveto
        13 callsubr
        return
      </CharString>
      <CharString index="87">
        93 86 hmoveto
        26 callsubr
        655 -102 -268 -282 268 49 callgsubr
        return
      </CharString>
      <CharString index="88">
        rmoveto
        -19 callsubr
      </CharString>
      <CharString index="89">
        -38 204 hmoveto
        120 hlineto
        205 655 rlineto
        -104 hlineto
        -97 -340 -21 -75 -16 -64 -23 -75 27 callsubr
        -23 75 -15 64 -22 75 -98 340 rcurveline
        -108 hlineto
        206 -655 rlineto
        return
      </CharString>
      <CharString index="90">
        59 hlineto
        20 176 3 104 rlineto
        -105 hlineto
        3 -104 20 -176 rlineto
        return
      </CharString>
      <CharString index="91">
        -301 136 138 rmoveto
        -87 callsubr
      </CharString>
      <CharString index="92">
        -301 128 522 -43 callsubr
      </CharString>
      <CharString index="93">
        -301 136 698 rmoveto
        -87 callsubr
      </CharString>
      <CharString index="94">
        -150 132 -56 -67 161 -116 return
      </CharString>
      <CharString index="95">
        731 rmoveto
        278 68 -278 -68 hlineto
        return
      </CharString>
      <CharString index="96">
        136 -70 51 -100 vhcurveto
        return
      </CharString>
      <CharString index="97">
        -230 rmoveto
        21 callgsubr
        29 66 rlineto
        -63 hlineto
        -45 -93 9 callsubr
        endchar
      </CharString>
      <CharString index="98">
        -62 vlineto
        -66 -5 rlineto
        -76 66 -408 101 408 99 81 -99 63 vlineto
        60 22 28 43 return
      </CharString>
      <CharString index="99">
        -29 489 40 callgsubr
        -107 hlineto
        -93 -222 -129 222 rlineto
        -109 hlineto
        279 -480 rlineto
        -295 -82 452 hlineto
        -140 241 142 321 rlineto
        return
      </CharString>
      <CharString index="100">
        -59 57 281 rmoveto
        86 hlineto
        60 162 48 134 36 callsubr
        48 -134 60 -162 rlineto
        86 hlineto
        -153 389 rlineto
        -86 hlineto
        -153 -389 rlineto
        endchar
      </CharString>
      <CharString index="101">
        -248 42 214 rmoveto
        234 75 -234 -75 hlineto
        endchar
      </CharString>
      <CharString index="102">
        102 409 rmoveto
        -17 callgsubr
        return
      </CharString>
      <CharString index="103">
        358 rmoveto
        38 30 30 42 41 -39 callgsubr
        -41 -42 30 -30 38 hvcurveto
        return
      </CharString>
      <CharString index="104">
        -61 callsubr
        -17 13 -17 19 return
      </CharString>
      <CharString index="105">
        -82 185 hmoveto
        117 hlineto
        169 489 rlineto
        -98 hlineto
        -84 -264 -43 -146 29 callgsubr
        -43 146 -84 264 rlineto
        -103 hlineto
        173 -489 rlineto
        return
      </CharString>
      <CharString index="106">
        rmoveto
        17 -12 16 -19 -94 callgsubr
        vhcurveto
        endchar
      </CharString>
      <CharString index="107">
        rmoveto
        -95 callsubr
        return
      </CharString>
      <CharString index="108">
        20 38 hhcurveto
        82 34 -64 -102 -115 -54 -64 -72 hvcurveto
        return
      </CharString>
      <CharString index="109">
        -191 44 hmoveto
        269 398 hlineto
        92 -45 57 -80 12 vhcurveto
        -104 15 -14 -81 68 -10 rlineto
        43 -6 25 -21 -60 vvcurveto
        -314 -162 -82 vlineto
        return
      </CharString>
      <CharString index="110">
        -23 220 hmoveto
        102 569 193 86 -488 -86 193 -569 hlineto
        return
      </CharString>
      <CharString index="111">
        hhcurveto
        71 38 -49 -85 hvcurveto
        return
      </CharString>
      <CharString index="112">
        -177 126 11 callsubr
        87 82 -298 -82 109 18 callgsubr
        return
      </CharString>
      <CharString index="113">
        -76 hlineto
        -38 -23 -43 -16 -61 -11 rrcurveto
        -64 117 return
      </CharString>
      <CharString index="114">
        55 35 -26 -74 hvcurveto
        return
      </CharString>
      <CharString index="115">
        -58 337 -200 rmoveto
        107 575 hlineto
        -11 callgsubr
        -227 -82 200 hlineto
        7 callgsubr
        -580 vlineto
        return
      </CharString>
      <CharString index="116">
        567 rmoveto
        12 callgsubr
        159 hmoveto
        12 callgsubr
        endchar
      </CharString>
      <CharString index="117">
        -98 -159 -162 79 -94 122 return
      </CharString>
      <CharString index="118">
        hlineto
        22 178 rlineto
        -62 hlineto
        -23 -178 rlineto
        return
      </CharString>
      <CharString index="119">
        102 167 -70 33 -87 -175 55 -25 rlineto
        return
      </CharString>
      <CharString index="120">
        -85 310 hmoveto
        107 10 callsubr
        -212 -82 185 hlineto
        7 callgsubr
        -380 vlineto
        return
      </CharString>
      <CharString index="121">
        261 -71 callgsubr
        -67 -12 38 callgsubr
        return
      </CharString>
      <CharString index="122">
        -69 callsubr
        endchar
      </CharString>
      <CharString index="123">
        -301 132 250 -73 callsubr
      </CharString>
      <CharString index="124">
        -91 -62 -75 -131 -132 62 -76 91 return
      </CharString>
      <CharString index="125">
        hlineto
        -17 -25 -11 -41 -51 vvcurveto
        -363 vlineto
        return
      </CharString>
      <CharString index="126">
        -489 hlineto
        endchar
      </CharString>
      <CharString index="127">
        -301 132 338 -83 callsubr
        return
      </CharString>
      <CharString index="128">
        111 5 63 29 61 vvcurveto
        41 -27 20 -47 11 vhcurveto
        return
      </CharString>
      <CharString index="129">
        -250 92 -152 rmoveto
        188 56 -112 748 112 56 -188 -860 hlineto
        endchar
      </CharString>
      <CharString index="130">
        -250 35 -152 rmoveto
        188 860 -188 -56 112 -748 -112 -56 hlineto
        endchar
      </CharString>
      <CharString index="131">
        -218 11 -160 rmoveto
        70 hlineto
        248 870 rlineto
        -70 hlineto
        -248 -870 rlineto
        endchar
      </CharString>
      <CharString index="132">
        102 655 25 callsubr
      </CharString>
      <CharString index="133">
        rmoveto
        -84 callsubr
        -84 callgsubr
        hvcurveto
        endchar
      </CharString>
      <CharString index="134">
        -95 193 -80 rmoveto
        84 hlineto
        -6 return
      </CharString>
      <CharString index="135">
        -90 callgsubr
        endchar
      </CharString>
      <CharString index="136">
        rlineto
        -4 hlineto
        return
      </CharString>
      <CharString index="137">
        -147 -11 -232 rrcurveto
        endchar
      </CharString>
      <CharString index="138">
        37 28 25 36 35 -28 25 -37 -37 -28 -25 -35 -36 28 -25 37 hvcurveto
        return
      </CharString>
      <CharString index="139">
        rmoveto
        25 callgsubr
      </CharString>
      <CharString index="140">
        rlineto
        -84 vlineto
        148 return
      </CharString>
      <CharString index="141">
        39 767 rmoveto
        36 callgsubr
        63 -63 rlineto
        return
      </CharString>
      <CharString index="142">
        1 callgsubr
        endchar
      </CharString>
      <CharString index="143">
        105 108 -105 109 -25 -27 return
      </CharString>
      <CharString index="144">
        rmoveto
        108 return
      </CharString>
      <CharString index="145">
        rmoveto
        -162 -37 return
      </CharString>
      <CharString index="146">
        hlineto
        63 64 -25 26 -105 -109 105 -107 rlineto
        return
      </CharString>
      <CharString index="147">
        562 rmoveto
        return
      </CharString>
      <CharString index="148">
        308 vlineto
        return
      </CharString>
      <CharString index="149">
        hlineto
        142 104 66 142 148 return
      </CharString>
      <CharString index="150">
        hhcurveto
        110 100 97 167 151 return
      </CharString>
      <CharString index="151">
        -39 768 rmoveto
        25 24 -62 66 rlineto
        return
      </CharString>
      <CharString index="152">
        vlineto
        136 return
      </CharString>
      <CharString index="153">
        148 -6 32 callsubr
        return
      </CharString>
      <CharString index="154">
        rmoveto
        6 callsubr
        return
      </CharString>
      <CharString index="155">
        -17 -13 -25 -25 17 return
      </CharString>
      <CharString index="156">
        -102 19 callsubr
        return
      </CharString>
      <CharString index="157">
        101 347 return
      </CharString>
</ttFont>
